<?xml version="1.0" encoding="UTF-8"?>
<svg id="Livello_1" xmlns="http://www.w3.org/2000/svg" version="1.1" viewBox="0 0 424.9 279.4">
  <!-- Generator: Adobe Illustrator 29.3.1, SVG Export Plug-In . SVG Version: 2.1.0 Build 151)  -->
  <defs>
    <style>
      .st0 {
        fill: #faea2a;
      }

      .st1 {
        fill: #faea27;
      }

      .st2 {
        fill: #d3242a;
      }
    </style>
  </defs>
  <path class="st2" d="M139.7,279.4c77.2,0,139.7-62.6,139.7-139.7S216.9,0,139.7,0,0,62.5,0,139.7s62.5,139.7,139.7,139.7"/>
  <path class="st1" d="M216.4,185.1h-1.3v12.9c.5.1,1.2.2,1.9.2,3.9,0,5.6-2,5.6-6.5s-2.2-6.6-6.2-6.6M216.9,167.6c-.6,0-1.3.1-1.8.2v12h1.2c3.8,0,5.9-2,5.9-6.1s-1.2-6.1-5.3-6.1M217.4,204.9c-4.2,0-8.3-.6-11.6-2.1v-39.2c3.4-1.4,7.2-2.1,11.5-2.1,9.6,0,14.6,4,14.6,11.9s-2.4,7.4-6.5,8.8h0c4.6,1.8,6.9,5.6,6.9,10.3,0,8-5.1,12.3-14.9,12.3"/>
  <path class="st1" d="M239,170.4h8.6v33.9h-8.6v-33.9ZM243.3,166.4c-2.6,0-4.7-2.1-4.7-4.7s2.1-4.7,4.7-4.7,4.7,2.1,4.7,4.7-2.1,4.7-4.7,4.7"/>
  <path class="st1" d="M267.3,176.1c-2.6,0-3.5,4.1-3.5,8.9v1l6.8-.7c0-5-.5-9.2-3.3-9.2M279.7,190.2l-15.7,1.8c.2,3.2,2,5.5,5.8,5.5s4.9-.5,7.1-1.4l2.1,6.6c-2.7,1.5-6.4,2.2-10.3,2.2-10.1,0-14.2-7-14.2-17.3s4.1-17.7,13-17.7,12.3,6.8,12.3,16.9,0,2.3-.1,3.5"/>
  <path class="st1" d="M301.4,204.2v-24.9c0-1.9-1-3-3.1-3s-1.6.1-2.2.4v27.5h-9.3v-32.2c3.5-1.6,7.2-2.2,11.5-2.2,8.6,0,12.4,3.4,12.4,9.6v24.8h-9.3Z"/>
  <path class="st0" d="M333.8,204.2v-24.9c0-1.9-1-3-3.1-3s-1.6.1-2.2.4v27.5h-9.3v-32.2c3.5-1.6,7.2-2.2,11.5-2.2,8.6,0,12.4,3.4,12.4,9.6v24.8h-9.3Z"/>
  <path class="st1" d="M364.5,187.8c-3.8.6-5.6,2.6-5.6,6.2s1,5.2,3.6,5.2,1.4,0,1.9-.3v-11.1h0ZM362.5,205.7c-7.7,0-12.1-4-12.1-10.9s5.7-11.4,14.1-12.5v-1.1c0-2.4-1.3-3.7-4-3.7s-4.8.6-6.9,1.6l-1.8-6.2c3.3-1.6,6.7-2.2,10.7-2.2,7.1,0,10.9,4,10.9,10.7v22.1c-3.1,1.6-6.8,2.2-10.8,2.2"/>
  <path class="st1" d="M175,187.8c-3.8.6-5.6,2.6-5.6,6.2s1,5.2,3.6,5.2,1.4,0,1.9-.3v-11.1h0ZM172.9,205.7c-7.7,0-12.1-4-12.1-10.9s5.7-11.4,14.1-12.5v-1.1c0-2.4-1.3-3.7-4-3.7s-4.8.6-6.9,1.6l-1.8-6.2c3.3-1.6,6.7-2.2,10.7-2.2,7.1,0,10.9,4,10.9,10.7v22.1c-3.1,1.6-6.8,2.2-10.8,2.2"/>
  <rect class="st1" x="382" y="157.6" width="8.5" height="46.6"/>
  <rect class="st1" x="145" y="157.6" width="8.6" height="46.6"/>
  <path class="st1" d="M410.6,176.1c-2.6,0-3.4,4.1-3.4,8.9v1l6.7-.7c0-5-.5-9.2-3.2-9.2M422.9,190.2l-15.5,1.8c.2,3.2,2,5.5,5.7,5.5s4.9-.5,7-1.4l2.1,6.6c-2.7,1.5-6.3,2.2-10.2,2.2-10,0-14-7-14-17.3s4-17.7,12.8-17.7,12.2,6.8,12.2,16.9,0,2.3-.1,3.5"/>
  <path class="st1" d="M170.6,140.2c0-2.4-1.3-4.2-3.7-4.2s-3.7,1.8-3.7,4.2,1.3,4.2,3.7,4.2,3.7-1.8,3.7-4.2"/>
  <path class="st1" d="M206.4,136.1h-3.1v3.8h3.1c1.4,0,2.2-.7,2.2-1.9s-.6-1.9-2.1-1.9"/>
  <path class="st1" d="M263.6,145.3h-.8l-.4-1.4h0c-.8,1.1-1.9,1.6-3.2,1.6-2.9,0-4.8-2.2-4.8-5.3s1.7-5.4,5-5.4,3.9,1.3,4.2,3.3h-1.3c-.3-1.4-1.2-2.2-2.9-2.2-2.5,0-3.6,1.9-3.6,4.3s1.5,4.2,3.6,4.2,3.1-1.4,3.1-3.2v-.2h-3.1v-1.1h4.4v5.4h0ZM244.4,145.3v-10.3h1.4l4.7,7.2c.4.5.8,1.3.8,1.3h0v-8.5h1.2v10.3h-1.3l-4.7-7.2c-.3-.5-.8-1.3-.8-1.3h0v8.5h-1.2ZM240.8,135h1.3v10.3h-1.3v-10.3ZM231.1,136.1v-1.1h8.2v1.1h-3.4v9.2h-1.3v-9.2h-3.4ZM226.1,144.4c1.9,0,2.9-1.3,3-2.8h1.3c0,1-.5,2.2-1.2,2.9-.7.7-1.8,1.1-3.1,1.1-2.9,0-4.8-2.2-4.8-5.4s1.8-5.4,4.9-5.4,3.9,1.4,4.1,3.3h-1.3c-.2-1.3-1.3-2.2-2.9-2.2s-3.5,1.8-3.5,4.2,1.4,4.2,3.6,4.2M215.6,144.4c1.6,0,2.6-.8,2.6-2.5v-6.9h1.3v7c0,2.5-1.7,3.5-3.9,3.5s-3.9-1-3.9-3.5v-7h1.3v6.9c0,1.8,1,2.5,2.7,2.5M209.5,143.1c.1,1.7.3,2.1.5,2.2h0c0,0-1.4,0-1.4,0-.2-.2-.3-.6-.4-2.3-.1-1.5-.7-2.1-2.1-2.1h-2.9v4.4h-1.3v-10.3h4.8c1.8,0,3,1.1,3,2.8s-.6,2.1-1.8,2.6h0c1.1.4,1.4,1.1,1.5,2.7M192.2,136.1v-1.1h8.2v1.1h-3.4v9.2h-1.3v-9.2h-3.4ZM187.2,140.4c-1.8-.4-3.4-.9-3.4-2.9s1.4-2.7,3.5-2.7,3.6,1.3,3.9,3.2h-1.2c-.2-1.5-1.1-2.2-2.6-2.2s-2.3.6-2.3,1.7,1.1,1.5,2.7,1.8c2,.4,3.8.9,3.8,3.2s-1.6,3-3.8,3-4.3-1.6-4.4-3.7h1.3c.2,1.7,1.2,2.6,3.2,2.6s2.4-.6,2.4-1.9-1.2-1.7-3.1-2.1M173.8,145.3v-10.3h1.4l4.7,7.2c.4.5.8,1.3.8,1.3h0v-8.5h1.2v10.3h-1.3l-4.7-7.2c-.3-.5-.8-1.3-.8-1.3h0v8.5h-1.2ZM161.9,140.2c0-3.1,1.9-5.4,5-5.4s5,2.3,5,5.4-1.9,5.4-5,5.4-5-2.3-5-5.4M156.2,144.4c1.9,0,2.9-1.3,3-2.8h1.3c0,1-.5,2.2-1.2,2.9-.7.7-1.8,1.1-3.1,1.1-2.9,0-4.8-2.2-4.8-5.4s1.8-5.4,4.9-5.4,3.9,1.4,4.1,3.3h-1.3c-.2-1.3-1.3-2.2-2.9-2.2s-3.5,1.8-3.5,4.2,1.4,4.2,3.6,4.2M145,150.3h125v-20.4h-125v20.4h0Z"/>
</svg>