<?xml version="1.0" encoding="UTF-8"?>
<svg id="Layer_1" data-name="Layer 1" xmlns="http://www.w3.org/2000/svg" width="726" height="200" viewBox="0 0 726 200">
  <defs>
    <style>
      .cls-1 {
        fill: #e6372a;
      }
    </style>
  </defs>
  <g>
    <path class="cls-1" d="M186.32,145.82h-3.32v34.12c1.42.4,3.16.66,4.89.66,10.1,0,14.52-5.31,14.52-17.26,0-12.88-5.68-17.52-16.1-17.52M187.74,99.62c-1.58,0-3.32.27-4.74.66v31.73h3.16c9.94,0,15.31-5.18,15.31-16.2s-3.16-16.2-13.73-16.2M188.85,197.86c-11.05,0-21.63-1.73-30.3-5.44v-103.55c8.84-3.71,18.78-5.44,29.99-5.44,25.09,0,38.04,10.49,38.04,31.46,0,9.16-6.16,19.64-16.89,23.23v.27c12,4.51,17.99,14.6,17.99,26.95,0,21.11-13.26,32.52-38.83,32.52"/>
    <path class="cls-1" d="M245.42,106.86h22.33v89.39h-22.33v-89.39ZM256.58,96.3c-6.67,0-12.18-5.57-12.18-12.31s5.51-12.31,12.18-12.31,12.18,5.57,12.18,12.31-5.51,12.31-12.18,12.31"/>
    <path class="cls-1" d="M319.21,122.1c-6.85,0-9.08,10.7-9.08,23.59v2.64l17.68-1.9c0-13.19-1.43-24.33-8.6-24.33M351.7,159.17l-40.94,4.69c.64,8.5,5.26,14.51,15.13,14.51,7.17,0,12.9-1.32,18.48-3.81l5.57,17.29c-7.17,3.96-16.72,5.86-26.92,5.86-26.44,0-37.11-18.47-37.11-45.72s10.67-46.6,33.93-46.6,32.17,18.02,32.17,44.55c0,2.93,0,6.16-.32,9.23"/>
    <path class="cls-1" d="M408.37,196.25v-65.8c0-4.98-2.51-7.91-8.16-7.91-2.2,0-4.23.29-5.8,1.02v72.68h-24.32v-84.99c9.26-4.1,18.83-5.86,30.12-5.86,22.44,0,32.48,8.94,32.48,25.35v65.5h-24.32Z"/>
    <path class="cls-1" d="M492.87,196.25v-65.8c0-4.98-2.51-7.91-8.16-7.91-2.19,0-4.23.29-5.8,1.02v72.68h-24.32v-84.99c9.26-4.1,18.83-5.86,30.12-5.86,22.44,0,32.48,8.94,32.48,25.35v65.5h-24.32Z"/>
    <path class="cls-1" d="M573.06,152.96c-10,1.47-14.62,6.74-14.62,16.41,0,7.62,2.62,13.63,9.54,13.63,1.69,0,3.69-.15,5.08-.88v-29.16ZM567.83,200c-20.16,0-31.55-10.55-31.55-28.87,0-20.95,14.78-30.04,36.79-32.97v-2.78c0-6.45-3.39-9.82-10.47-9.82-5.54,0-12.47,1.61-18.01,4.25l-4.77-16.27c8.62-4.1,17.55-5.86,27.86-5.86,18.47,0,28.32,10.55,28.32,28.28v58.18c-8.16,4.1-17.7,5.86-28.17,5.86"/>
    <path class="cls-1" d="M78.12,152.96c-10,1.47-14.62,6.74-14.62,16.41,0,7.62,2.62,13.63,9.54,13.63,1.69,0,3.69-.15,5.08-.88v-29.16ZM72.89,200c-20.16,0-31.55-10.55-31.55-28.87,0-20.95,14.78-30.04,36.79-32.97v-2.78c0-6.45-3.39-9.82-10.47-9.82-5.54,0-12.47,1.61-18.01,4.25l-4.77-16.27c8.62-4.1,17.55-5.86,27.86-5.86,18.47,0,28.32,10.55,28.32,28.28v58.18c-8.16,4.1-17.7,5.86-28.17,5.86"/>
  </g>
  <rect class="cls-1" x="618.73" y="73.15" width="22.33" height="123.09"/>
  <rect class="cls-1" y="73.15" width="22.33" height="123.09"/>
  <g>
    <path class="cls-1" d="M693.59,122.1c-6.77,0-8.97,10.7-8.97,23.59v2.64l17.47-1.9c0-13.19-1.42-24.33-8.5-24.33M725.69,159.17l-40.44,4.69c.63,8.5,5.2,14.51,14.95,14.51,7.08,0,12.74-1.32,18.25-3.81l5.51,17.29c-7.08,3.96-16.52,5.86-26.6,5.86-26.12,0-36.66-18.47-36.66-45.72s10.54-46.6,33.52-46.6,31.79,18.02,31.79,44.55c0,2.93,0,6.16-.31,9.23"/>
    <path class="cls-1" d="M66.83,27.12c0-6.39-3.39-11.22-9.71-11.22s-9.71,4.83-9.71,11.22,3.39,11.18,9.71,11.18,9.71-4.79,9.71-11.18"/>
    <path class="cls-1" d="M160.17,16.51h-8.17v9.96h7.98c3.76,0,5.65-1.9,5.65-4.98,0-3.31-1.51-4.98-5.46-4.98"/>
    <path class="cls-1" d="M309.52,40.74h-2.18l-.98-3.58h-.08c-1.96,2.78-4.85,4.15-8.39,4.15-7.56,0-12.64-5.82-12.64-14.07s4.48-14.26,12.95-14.26c6.25,0,10.09,3.42,10.95,8.75h-3.5c-.75-3.61-3.27-5.78-7.53-5.78-6.47,0-9.41,4.91-9.41,11.3s3.84,11.11,9.3,11.11,8.13-3.8,8.13-8.37v-.65h-8.09v-2.97h11.48v14.38ZM259.43,40.74V13.54h3.58l12.27,18.9c.9,1.41,1.96,3.5,1.96,3.5h.08V13.54h3.16v27.19h-3.46l-12.34-18.94c-.87-1.33-1.99-3.38-1.99-3.38h-.08v22.33h-3.16ZM250.17,13.54h3.39v27.19h-3.39V13.54ZM224.69,16.55v-3h21.3v3h-8.96v24.19h-3.39v-24.19h-8.96ZM211.59,38.27c5.08,0,7.49-3.5,7.83-7.49h3.35c-.04,2.7-1.32,5.74-3.24,7.64-1.88,1.86-4.63,2.85-8.05,2.85-7.64,0-12.61-5.9-12.61-14.15s4.74-14.19,12.76-14.19c6.29,0,10.09,3.65,10.8,8.67h-3.31c-.64-3.38-3.31-5.71-7.56-5.71-5.91,0-9.22,4.83-9.22,11.22s3.65,11.14,9.26,11.14M184.34,38.23c4.25,0,6.81-1.98,6.81-6.62V13.54h3.39v18.41c0,6.58-4.55,9.2-10.31,9.2s-10.31-2.62-10.31-9.2V13.54h3.39v18.07c0,4.64,2.6,6.62,7.04,6.62M168.34,34.77c.3,4.37.75,5.48,1.24,5.82v.15h-3.65c-.56-.49-.68-1.52-.98-6.09-.26-3.99-1.84-5.4-5.46-5.4h-7.49v11.49h-3.39V13.54h12.57c4.74,0,7.94,3,7.94,7.45,0,3.31-1.43,5.67-4.67,6.73v.11c2.75.99,3.61,2.89,3.88,6.92M123.21,16.55v-3h21.3v3h-8.96v24.19h-3.39v-24.19h-8.96ZM110.19,27.77c-4.74-1.06-8.81-2.43-8.81-7.57,0-4.49,3.69-7.19,9.15-7.19,6.74,0,9.52,3.46,10.2,8.48h-3.2c-.49-3.88-2.97-5.82-6.93-5.82-3.65,0-6.06,1.56-6.06,4.37,0,3.08,3.01,3.99,7.04,4.79,5.23,1.06,10.01,2.36,10.01,8.48,0,5.1-4.1,7.95-9.9,7.95-7.57,0-11.18-4.26-11.48-9.74h3.31c.45,4.6,3.24,7,8.32,7,3.73,0,6.4-1.71,6.4-5.1,0-3.73-3.24-4.6-8.05-5.67M75.07,40.74V13.54h3.58l12.27,18.9c.9,1.41,1.96,3.5,1.96,3.5h.08V13.54h3.16v27.19h-3.46l-12.35-18.94c-.87-1.33-1.99-3.38-1.99-3.38h-.08v22.33h-3.16ZM43.94,27.12c0-8.14,5.04-14.19,13.17-14.19s13.17,6.05,13.17,14.19-5.04,14.19-13.17,14.19-13.17-6.05-13.17-14.19M29.23,38.27c5.08,0,7.49-3.5,7.83-7.49h3.35c-.04,2.7-1.32,5.74-3.24,7.64-1.88,1.86-4.63,2.85-8.05,2.85-7.64,0-12.61-5.9-12.61-14.15s4.74-14.19,12.76-14.19c6.28,0,10.09,3.65,10.8,8.67h-3.31c-.64-3.38-3.31-5.71-7.57-5.71-5.91,0-9.22,4.83-9.22,11.22s3.65,11.14,9.26,11.14M0,53.91h326.47V0H0v53.91Z"/>
  </g>
</svg>