<?xml version="1.0" encoding="UTF-8"?>
<svg id="Livello_1" data-name="Livello 1" xmlns="http://www.w3.org/2000/svg" width="105" height="40" viewBox="0 0 105 40">
  <defs>
    <style>
      .cls-1 {
        fill: #ffed00;
      }
    </style>
  </defs>
  <path class="cls-1" d="M35.72,26.44v-.35c0-4.44,0-8.89,0-13.33,0-1.23-.12-2.44-.55-3.61-.47-1.26-1.33-2.17-2.49-2.8-.42-.23-.86-.43-1.3-.6-.24-.1-.36-.21-.32-.47.02-.12,0-.24,0-.38h10.17c0,.2.02.4-.01.6-.01.08-.13.16-.22.21-.69.37-1.43.68-2.08,1.11-1.24.83-1.89,2.09-2.11,3.53-.15.94-.23,1.91-.23,2.86-.02,6.6-.01,13.2-.01,19.8v.39c-.38.02-.7.07-1.02-.24-3.33-3.16-6.67-6.31-10.02-9.46-3.97-3.74-7.95-7.48-11.92-11.23-.63-.59-1.26-1.19-1.89-1.79-.06-.06-.13-.11-.24-.2-.01.12-.03.21-.03.29,0,4.88,0,9.75,0,14.63,0,1.24.13,2.46.59,3.63.54,1.36,1.54,2.27,2.83,2.9.3.15.61.3.93.41.26.08.34.23.31.47-.01.12,0,.24,0,.38H5.95c0-.21-.02-.41,0-.6.01-.08.12-.17.21-.21.78-.32,1.53-.67,2.21-1.19,1.2-.92,1.82-2.17,2.03-3.62.13-.88.19-1.78.19-2.67.02-4.91,0-9.83.01-14.74,0-.31-.08-.52-.31-.73-.94-.82-1.84-1.69-2.8-2.5-.9-.76-1.95-1.2-3.13-1.31-.05,0-.09-.02-.15-.04v-.73h.34c2.52,0,5.05.01,7.57,0,.61,0,1.11.17,1.54.57.87.81,1.73,1.62,2.59,2.44,2.09,1.99,4.18,3.99,6.27,5.99,1.88,1.8,3.77,3.61,5.65,5.41,2.46,2.35,4.91,4.69,7.37,7.04.04.04.08.06.18.14"/>
  <path class="cls-1" d="M42.35,15.49v-.28c.63,0,1.25-.03,1.87.01.18.01.36.19.51.33,1.37,1.37,2.74,2.75,4.1,4.13.2.2.39.4.64.66,0-.35,0-.61,0-.88,0-.94,0-1.88-.02-2.83-.01-.48-.18-.9-.7-1.09-.08-.03-.11-.18-.18-.33h2.33c.06.2,0,.31-.2.38-.37.13-.51.45-.57.81-.03.18-.04.37-.04.56,0,1.67,0,3.33,0,5v.34c-.25.09-.42.03-.59-.15-1.62-1.64-3.26-3.27-4.88-4.9-.08-.08-.15-.19-.22-.29-.02.01-.05.03-.07.05,0,.04-.03.08-.03.12,0,1.21,0,2.43.01,3.64,0,.52.16.99.73,1.19.07.03.1.17.18.31h-2.34c-.06-.18-.03-.3.17-.37.4-.14.58-.47.59-.85.04-1,.04-1.99.05-2.99,0-.41-.02-.83,0-1.24.01-.32-.09-.58-.35-.76-.3-.22-.61-.42-.91-.63-.02.01-.04.03-.07.04"/>
  <path class="cls-1" d="M42.46,26.36v-.3h2.85v.29c-.72.24-.79.34-.79,1.08,0,.92,0,1.84.02,2.77,0,.2.01.4.05.59.16.86.66,1.41,1.53,1.6.6.13,1.2.13,1.79-.03.92-.24,1.42-.92,1.45-2.04.02-.95,0-1.9-.03-2.85-.01-.49-.19-.9-.7-1.09-.08-.03-.12-.17-.21-.31h2.43c-.07.13-.1.28-.18.31-.48.19-.67.57-.68,1.04-.03.96-.03,1.92-.04,2.88,0,.52-.1,1.01-.33,1.47-.35.69-.93,1.09-1.67,1.29-.89.24-1.79.24-2.68.01-1.31-.34-2.04-1.35-2.05-2.82,0-.96,0-1.92,0-2.88,0-.73-.07-.81-.77-1.01"/>
  <path class="cls-1" d="M69.72,21.95c0,.1,0,.18.01.28h-2.42c0-.08,0-.17-.01-.25.59-.21.62-.24.62-.88,0-.68,0-1.36-.02-2.03,0-.51-.25-.75-.73-.6-.35.1-.65.35-.96.54-.05.03-.07.15-.07.22,0,.72.01,1.45.02,2.17,0,.29.14.47.42.5.23.03.21.16.17.34h-2.41c-.07-.2-.03-.31.2-.34.23-.03.38-.18.38-.42,0-1.82,0-3.65,0-5.5h-.74c.09-.15.12-.27.2-.32.42-.29.84-.57,1.27-.83.12-.07.27-.07.45-.11v3.74c.19-.13.33-.23.47-.33.4-.27.83-.47,1.34-.45.73.03,1.16.42,1.18,1.16.02.8,0,1.6,0,2.4,0,.49.09.6.61.71"/>
  <path class="cls-1" d="M53.51,33.11h-2.37c-.09-.21-.02-.3.18-.34.26-.04.39-.21.39-.47v-2.68h-.67c.04-.12.05-.25.1-.28.57-.29.98-.89,1.74-.87v.87c.26-.18.48-.33.71-.48.34-.21.71-.34,1.12-.32.73.03,1.16.44,1.17,1.17,0,.72,0,1.43,0,2.15,0,.16,0,.32.02.48.02.23.14.4.38.43.21.03.28.12.21.34h-2.4c0-.08-.01-.17-.02-.25q.62-.24.62-.9c0-.65,0-1.3,0-1.95,0-.61-.36-.86-.93-.62-.26.11-.5.29-.73.47-.07.05-.1.18-.1.27,0,.69-.01,1.37,0,2.06,0,.42.06.47.47.62.08.03.13.16.2.24-.03.02-.06.05-.09.07"/>
  <path class="cls-1" d="M100.78,21.91v.27h-2.4c-.06-.2-.02-.3.2-.34.22-.03.37-.18.37-.43,0-.86,0-1.73-.01-2.59,0-.31-.24-.47-.57-.45-.46.03-.8.3-1.12.6-.05.04-.05.16-.05.24,0,.65,0,1.3,0,1.95,0,.5.04.53.49.72.08.03.11.17.19.31h-2.49c0-.08-.01-.17-.02-.27.08-.02.15-.05.23-.06.26-.05.39-.22.4-.48,0-.88,0-1.77,0-2.69-.17,0-.32,0-.48,0-.06,0-.15-.03-.16-.06-.01-.06,0-.17.05-.2.42-.29.84-.57,1.28-.83.11-.07.29-.03.46-.04.01.29.03.55.04.83.27-.18.52-.35.77-.51.41-.25.86-.33,1.33-.23.59.13.87.52.88,1.2,0,.74,0,1.49,0,2.23,0,.6.03.64.61.82"/>
  <path class="cls-1" d="M86.62,28.58h1.84c.04.15,0,.22-.13.34-.23.21-.44.46-.57.74-.66,1.4-1.28,2.83-1.93,4.23-.15.32-.35.62-.57.9-.25.31-.61.39-1,.33-.32-.05-.53-.24-.61-.55-.07-.28-.05-.55.19-.75.21-.17.46-.22.68-.08.17.1.3.29.49.49.19-.39.39-.79.58-1.2.02-.05-.02-.14-.05-.21-.5-1.07-1-2.15-1.5-3.22-.13-.28-.25-.57-.57-.7-.06-.02-.06-.19-.1-.31h2.5v.26s-.03.03-.05.04c-.56.14-.63.27-.39.81.27.62.55,1.23.86,1.93.3-.75.59-1.42.83-2.1.11-.32-.01-.49-.36-.62-.17-.06-.23-.15-.15-.33"/>
  <path class="cls-1" d="M77.23,19.99c-.39.18-.73.3-1.04.49-.28.17-.34.63-.18.94.13.24.42.33.77.22.11-.04.23-.09.32-.17.06-.05.12-.15.12-.23.01-.38,0-.77,0-1.25M77.3,21.84c-.51.34-1.02.57-1.62.48-.41-.06-.72-.24-.85-.64-.14-.43-.11-.87.24-1.18.26-.23.58-.41.91-.54.39-.17.82-.27,1.25-.4,0-.32,0-.64,0-.95,0-.26-.15-.44-.42-.43-.27,0-.55.05-.79.07.04.27.09.46.09.66,0,.26-.16.44-.4.52-.23.08-.45.06-.63-.12-.19-.19-.22-.46-.09-.65.16-.25.38-.49.63-.65.59-.37,1.27-.41,1.94-.3.59.1.85.45.86,1.08,0,.82,0,1.64.01,2.46,0,.37.05.41.43.42.08,0,.16.07.24.11-.05.09-.07.22-.14.25-.27.11-.54.23-.82.28-.36.06-.68-.04-.83-.45"/>
  <path class="cls-1" d="M52.59,19.65c.05.57.1,1.13.38,1.64.21.38.52.62.97.6.43-.01.81-.18.95-.62.29-.92.18-1.82-.31-2.65-.22-.37-.6-.49-1.03-.43-.42.06-.71.3-.82.71-.07.24-.09.49-.13.74M53.78,22.38c-1.39,0-2.35-.91-2.36-2.25,0-1.42,1-2.43,2.43-2.43,1.38,0,2.36.89,2.37,2.18.01,1.5-.96,2.49-2.44,2.5"/>
  <path class="cls-1" d="M73.06,19.08c-.05-.16-.08-.3-.14-.43-.12-.28-.33-.46-.65-.47-.33-.01-.59.11-.76.39-.2.33-.22.7-.19,1.09.07-.01.1-.02.14-.03.52-.18,1.05-.36,1.6-.56M74.23,19.23c-.96.32-1.88.63-2.82.95.14.61.38,1.14.97,1.39.61.25,1.16.08,1.64-.38.08.06.16.12.26.2-.35.62-.89.9-1.57.96-1.26.11-2.29-.65-2.46-1.81-.21-1.41.52-2.56,1.79-2.83.98-.21,1.86.24,2.11,1.09.04.13.05.27.08.43"/>
  <path class="cls-1" d="M89.91,19.05c-.03-.12-.05-.21-.08-.28-.13-.4-.4-.62-.74-.62-.4,0-.72.22-.83.63-.07.26-.08.55-.13.89.64-.22,1.2-.41,1.78-.61M88.25,20.16c.14.59.37,1.11.95,1.36.62.27,1.17.11,1.66-.36.09.06.17.12.26.19-.29.53-.72.81-1.29.92-1.08.22-2.13-.24-2.55-1.16-.63-1.37,0-3.24,1.8-3.47,1-.13,1.82.43,1.97,1.34.03.17,0,.23-.17.28-.79.25-1.57.52-2.35.79-.09.03-.17.06-.28.1"/>
  <path class="cls-1" d="M67.7,29.92c-.06-.17-.1-.32-.16-.45-.29-.66-1.11-.51-1.37-.11-.22.35-.25.73-.22,1.16.59-.2,1.15-.4,1.74-.6M68.86,30.07c-.95.32-1.87.63-2.83.95.15.6.36,1.13.96,1.38.61.26,1.16.11,1.65-.37.08.06.17.13.26.2-.35.63-.9.9-1.58.96-1.24.12-2.28-.65-2.45-1.82-.21-1.4.54-2.57,1.8-2.82,1-.2,1.86.25,2.1,1.1.04.12.05.26.08.42"/>
  <path class="cls-1" d="M74.98,33.21c-.27-.06-.54-.09-.79-.17-.16-.05-.28-.06-.41.05-.15.12-.25.09-.3-.11-.09-.38-.2-.76-.28-1.15-.01-.06.03-.19.06-.2.08-.01.2,0,.26.05.26.23.47.51.74.72.33.26.71.39,1.14.26.43-.14.54-.63.19-.91-.19-.15-.44-.24-.67-.34-.29-.12-.6-.21-.9-.33-.51-.23-.8-.61-.77-1.19.03-.58.31-1,.84-1.23.49-.21.99-.2,1.49-.06.08.02.19.07.24.04.3-.23.34,0,.4.21.07.23.15.46.21.7.02.07-.02.21-.06.22-.07.02-.19,0-.25-.05-.23-.18-.43-.41-.68-.55-.2-.11-.46-.16-.69-.18-.22-.02-.4.11-.47.33-.08.23-.02.47.19.6.2.12.42.21.63.3.32.13.66.22.98.37,1.04.5.82,1.75.17,2.22-.34.25-.75.38-1.25.41"/>
  <path class="cls-1" d="M79.57,20.84c.18-.15.29-.11.42.04.34.41.7.83,1.26.94.17.03.36.03.53,0,.22-.04.37-.18.41-.41.04-.24-.04-.44-.24-.56-.17-.11-.37-.18-.56-.26-.35-.14-.71-.25-1.05-.41-1.01-.46-.8-1.83-.05-2.27.54-.31,1.11-.32,1.69-.17.09.02.22.06.29.01.21-.14.28-.05.33.14.09.32.19.63.29.94-.15.17-.26.15-.41-.01-.29-.32-.61-.59-1.05-.68-.25-.05-.52-.04-.66.19-.08.13-.11.35-.07.49.05.14.2.27.34.35.22.12.47.19.71.27.22.08.44.15.66.25.47.21.77.55.78,1.1,0,.57-.24,1-.73,1.27-.59.32-1.21.32-1.83.12-.16-.05-.29-.09-.44.04-.13.12-.25.1-.29-.11-.1-.43-.21-.86-.32-1.29"/>
  <path class="cls-1" d="M59.67,28.63h2.53c0,.09.01.18.02.26-.03.02-.05.04-.06.04-.58.15-.64.28-.39.84.27.61.54,1.22.84,1.89.06-.14.1-.23.14-.32.23-.56.47-1.11.67-1.67.14-.4.04-.56-.34-.73-.09-.04-.14-.15-.25-.26.13-.04.16-.06.19-.06.53,0,1.05,0,1.58,0,.06,0,.16.05.18.11.02.04-.02.17-.06.19-.4.15-.53.52-.68.86-.48,1.04-.95,2.09-1.42,3.13-.08.17-.15.27-.37.27-.22,0-.31-.08-.39-.27-.5-1.1-1.01-2.19-1.52-3.28-.12-.26-.24-.53-.54-.66-.07-.03-.08-.18-.14-.32"/>
  <path class="cls-1" d="M92.16,18.69h-.61c-.03-.36,1.22-1.15,1.76-1.11v.84c.2-.22.33-.4.49-.54.24-.23.52-.37.87-.28.33.09.5.35.46.74-.03.37-.25.63-.57.68-.31.04-.53-.12-.65-.49,0-.02-.02-.03-.04-.06-.27.31-.53.6-.5,1.06.04.56,0,1.13.01,1.69,0,.44.08.55.5.64.2.04.2.16.17.33h-2.49c0-.08-.01-.17-.02-.27.1-.03.18-.05.26-.07.23-.06.36-.21.36-.45,0-.89,0-1.79,0-2.72"/>
  <path class="cls-1" d="M59.43,21.99v.28h-2.49c-.06-.18-.04-.31.2-.34.23-.03.39-.18.39-.41,0-.91,0-1.82,0-2.75h-.6c-.04-.37,1.19-1.14,1.76-1.12v.86c.14-.17.2-.28.3-.36.2-.16.4-.35.63-.45.35-.15.68,0,.82.29.16.34.05.8-.23.99-.29.2-.82.15-.95-.47-.28.34-.56.62-.53,1.09.03.56,0,1.13.03,1.69.03.51.07.54.55.66.04,0,.07.03.12.04"/>
  <path class="cls-1" d="M69.36,33.08c0-.1-.01-.18-.02-.27.09-.03.16-.06.24-.07.24-.05.36-.21.37-.44,0-.9,0-1.8,0-2.74h-.63c-.02-.35,1.27-1.15,1.76-1.1v.79s.04.01.06.02c.11-.13.21-.27.32-.4.21-.23.44-.41.77-.41.39,0,.62.19.67.57.05.41-.16.78-.49.85-.37.08-.61-.09-.75-.55-.26.32-.54.59-.52,1.03.02.5,0,1,0,1.5,0,.71.03.74.7.95v.28h-2.5Z"/>
  <path class="cls-1" d="M80.77,29.14h-.65c-.09-.22-.01-.34.17-.45.46-.29.91-.6,1.37-.89.07-.05.17-.05.26-.08.02.09.06.17.06.26,0,.19,0,.39,0,.62h1.18v.56h-1.18v1.27c0,.49,0,.98,0,1.47,0,.51.2.68.71.61.17-.02.34-.09.53-.14.05.09.09.18.15.29-.58.44-1.22.63-1.93.48-.45-.09-.65-.4-.65-.92,0-.89,0-1.79,0-2.68v-.38Z"/>
  <path class="cls-1" d="M84.18,18.31h-.64c-.09-.18-.09-.31.09-.42.48-.31.96-.63,1.44-.94.08-.05.18-.07.31-.12v.9h1.17v.56h-1.17v1.04c0,.55,0,1.11,0,1.66,0,.56.23.75.78.64.15-.03.29-.08.46-.14.05.1.1.19.15.31-.59.43-1.22.62-1.92.48-.42-.08-.65-.39-.65-.83,0-.94-.01-1.88-.02-2.82v-.32"/>
  <path class="cls-1" d="M61.48,18.34h-.66c-.08-.22-.02-.35.16-.46.45-.28.9-.59,1.35-.88.09-.06.19-.09.33-.15v.92h1.18v.56h-1.18c0,.71,0,1.38,0,2.06,0,.25,0,.51.01.76,0,.39.17.56.56.53.22-.01.44-.09.68-.14.04.08.08.17.13.25-.43.47-1.51.71-2.07.47-.35-.16-.49-.45-.49-.82,0-.92,0-1.85,0-2.77v-.34"/>
  <path class="cls-1" d="M77.88,29.56h-.65c-.02-.37,1.31-1.17,1.84-1.12,0,.09.01.18.01.27,0,1.05,0,2.11.01,3.16,0,.7,0,.7.64.91.07.21.02.31-.23.3-.75-.01-1.5,0-2.27,0,0-.11-.01-.19-.02-.27.02-.02.04-.04.05-.04q.61-.19.61-.82v-2.39Z"/>
  <path class="cls-1" d="M57.76,29.6h-.67c.04-.11.04-.24.09-.27.57-.3,1-.91,1.8-.86v1.02c0,.88,0,1.77,0,2.65,0,.43.07.53.49.62.21.04.19.16.15.33h-2.48c-.07-.19-.04-.3.2-.34.23-.03.42-.15.42-.42,0-.9,0-1.8,0-2.74"/>
  <path class="cls-1" d="M77.75,27.08c0-.42.3-.74.72-.74.38,0,.65.28.65.66,0,.43-.3.74-.72.73-.39,0-.65-.26-.65-.66"/>
  <path class="cls-1" d="M58.36,26.38c.38,0,.66.28.67.65,0,.4-.33.74-.73.75-.37,0-.65-.28-.65-.67,0-.43.3-.73.72-.74"/>
</svg>