<?xml version="1.0" encoding="UTF-8"?>
<svg id="Livello_1" data-name="Livello 1" xmlns="http://www.w3.org/2000/svg" width="160" height="40" viewBox="0 0 160 40">
  <defs>
    <style>
      .cls-1 {
        fill: #ffed00;
      }
    </style>
  </defs>
  <path class="cls-1" d="M43.73,16.69c.44,0,.73-.25.73-.7s-.29-.69-.73-.69h-.67v1.39h.67ZM42.08,14.45h1.84c.96,0,1.58.67,1.58,1.54s-.62,1.55-1.58,1.55h-.86v1.53h-.98v-4.62Z"/>
  <path class="cls-1" d="M48.34,17.45c0-.52-.36-.84-.81-.84s-.8.32-.8.84.36.85.8.85.81-.32.81-.85M45.78,17.45c0-.96.71-1.71,1.75-1.71s1.76.75,1.76,1.71-.72,1.72-1.76,1.72-1.75-.75-1.75-1.72"/>
  <path class="cls-1" d="M53.43,18.12v-1.51h-.55v-.76h.58v-.88l.89-.33v1.21h.72v.76h-.72v1.29c0,.29.15.44.46.44.1,0,.19-.02.26-.04v.8c-.09.03-.32.07-.55.07-.59,0-1.09-.3-1.09-1.05"/>
  <path class="cls-1" d="M57.79,17.09c-.02-.3-.23-.59-.67-.59-.4,0-.65.3-.67.59h1.35ZM55.46,17.43c0-1.02.73-1.69,1.65-1.69,1.02,0,1.6.71,1.6,1.71,0,.08,0,.22-.01.27h-2.28c.02.44.43.69.83.69.44,0,.8-.12,1.23-.4v.8c-.3.19-.68.36-1.32.36-.93,0-1.69-.62-1.69-1.73"/>
  <path class="cls-1" d="M60.06,17.45c0,.57.4.84.85.84.34,0,.62-.09.94-.3v.96c-.24.11-.56.22-.99.22-1.02,0-1.76-.7-1.76-1.72s.75-1.71,1.76-1.71c.43,0,.75.11.99.22v.95c-.32-.21-.6-.3-.94-.3-.45,0-.85.29-.85.84"/>
  <path class="cls-1" d="M62.52,15.84h.91v.26c.2-.21.49-.36.9-.36.61,0,1.18.42,1.18,1.18v2.15h-.92v-1.92c0-.35-.23-.57-.54-.57-.25,0-.46.13-.61.34v2.15h-.92v-3.22Z"/>
  <path class="cls-1" d="M68.64,17.45c0,.57.4.84.85.84.34,0,.62-.09.94-.3v.96c-.24.11-.56.22-.99.22-1.02,0-1.76-.7-1.76-1.72s.75-1.71,1.76-1.71c.43,0,.75.11.99.22v.95c-.32-.21-.6-.3-.94-.3-.45,0-.85.29-.85.84"/>
  <path class="cls-1" d="M73.47,17.45c0-.52-.36-.84-.81-.84s-.8.32-.8.84.36.85.8.85.81-.32.81-.85M70.91,17.45c0-.96.71-1.71,1.75-1.71s1.76.75,1.76,1.71-.72,1.72-1.76,1.72-1.75-.75-1.75-1.72"/>
  <polygon class="cls-1" points="50.49 21.39 49.02 21.39 49.02 20.48 52.96 20.48 52.96 21.39 51.49 21.39 51.49 25.11 50.49 25.1 50.49 21.39"/>
  <path class="cls-1" d="M55.02,23.48c0-.52-.36-.84-.81-.84s-.8.32-.8.84.36.85.8.85.81-.32.81-.85M52.46,23.48c0-.96.71-1.71,1.75-1.71s1.76.75,1.76,1.71-.72,1.72-1.76,1.72-1.75-.75-1.75-1.72"/>
  <path class="cls-1" d="M56.56,21.88h.91v.47c.16-.36.45-.57.86-.57.07,0,.2.01.24.02v.94c-.11-.03-.21-.03-.34-.03-.35,0-.67.23-.75.54v1.87h-.92v-3.22Z"/>
  <path class="cls-1" d="M60.81,21.88h.91v.26c.2-.2.49-.36.9-.36.61,0,1.18.42,1.18,1.18v2.15h-.92v-1.92c0-.35-.23-.57-.54-.57-.25,0-.46.13-.61.34v2.15h-.92v-3.22Z"/>
  <path class="cls-1" d="M66.88,23.48c0-.52-.36-.84-.81-.84s-.8.32-.8.84.36.85.8.85.81-.32.81-.85M64.32,23.48c0-.96.71-1.71,1.75-1.71s1.76.75,1.76,1.71-.72,1.72-1.76,1.72-1.75-.75-1.75-1.72"/>
  <path class="cls-1" d="M29.69,17.6h-.12l-.08.06h0s.08-.04.08-.04h.12v-.02ZM29.69,17.45h-.12l-.08.06h0s.08-.04.08-.04h.12v-.02ZM29.69,17.3h-.12l-.08.07h.01s.07-.05.07-.05h.12v-.02ZM29.69,17.15h-.12l-.08.07h.01s.07-.05.07-.05h.12v-.02ZM29.69,17.75h-.12l-.08.05h0s.07-.03.07-.03h.12v-.02ZM29.69,18.06h-.12l-.08.06h0s.07-.04.07-.04h.12v-.02ZM29.69,17.91h-.12l-.08.06h0s.07-.04.07-.04h.12v-.02ZM29.36,17.65c-.1.08-.15.13-.26.21,0,.04.01.09.01.13,0,.02.01.03.02.05v1.1s0,0,.01,0v-1.22c.12-.11.23-.12.22-.27M29.29,18.82v-.94s-.07.06-.12.1v.92s.07-.05.12-.08M29.27,17.43c0,.21-.07.26-.07.07s-.09.31-.09.31c.11-.09.16-.13.26-.21,0,0-.1-.35-.1-.16M28.95,17.98c-.09.08-.14.11-.24.19,0,.04.01.08,0,.13,0,.02.01.03.02.05v1.04s0,0,0,0v-1.15c.1-.1.21-.11.2-.25M28.89,19.09v-.89s-.07.05-.11.09v.87s.07-.04.11-.07M29.69,16.99h-.12l-.08.07h.01s.07-.05.07-.05h.12v-.02ZM29.69,18.21h-.12l-.08.06h0s.08-.04.08-.04h.12v-.02ZM29.69,16.69h-.12l-.08.07h.01s.07-.05.07-.05h.12v-.02ZM29.69,16.84h-.12l-.08.07h.01s.07-.05.07-.05h.12v-.02ZM29.69,18.36h-.12l-.08.05h0s.07-.04.07-.04h.12v-.02ZM28.66,16.25l.17-.35.07.07-.03.06-.03-.02-.1.21.05-.03-.07.15-.07-.09ZM28.92,16.54l-.1.14v-.49h0s.04-.11.04-.11h.06v.46ZM29.05,15.91l.13-.3h.01v.65l-.14.18v-.52ZM28.25,17.37l1.48-1.6,1.03-3.13-.71.9-.86,1.83h-.07l-.16.4.18-.35.02.02-.19.4h0s-.14-.01-.14-.01l-.16.4-.04-.04h-.14l-.15.41.17-.35.14.13h.06l-.05.1v.31l-.15.19v-.17s0-.32,0-.32l.03-.07h.09s-.11-.07-.11-.07l-.1.21.05-.03v.34l-.23.48ZM32.29,15.02h-.26v.36h.26v-.36ZM30.83,7.64s-.13-.02-.13.04c.02.29.58.33.77.45,0,.05-.16.06-.06.16.05.05.11.08.18.1.15.05.35.01.48.05.03.04-.07,0-.03.06.13.07.54.28.65.29-.4-.39-.87-.71-1.28-1.08.34.3.74.54,1.07.85.09.07.17.16.25.2,0,0,.04.01.04-.03,0-.1-.08-.12-.14-.19-.02-.03-.07-.12-.1-.14-.03-.02-.05,0-.07-.03-.01-.02.05-.09.05-.14,0-.09-.08-.25-.19-.19-.11.05-.04-.04-.03-.1,0-.17-.2-.31-.35-.25-.03.02-.04.03-.06.02-.05-.03-.15-.25-.33-.4-.11-.08-.23-.12-.26-.02,0,.04-.03.05-.1,0-.13-.08-.33-.21-.49-.25-.34-.08-.24.2-.02.43.07.08.15.15.14.16M32.66,10.35c0,.13.14.21.24.25.06.03.13.05.08.11-.05.05-.06.14.04.18.12.06.34-.03.32.05-.01.04-.05.07-.03.11.03.07.13.07.18.04.03-.01.08-.09.09-.08,0,0,0,.03-.01.07-.05.12.03.18.14.12.07-.04.13-.2.14-.06,0,.03.08.04.1.05.02.01.05.06.06.07.06.04.12,0,.1-.08-.21-.28-.46-.56-.81-.67,0,0-.01,0-.01,0,.03,0,.07.01.1.03.31.11.55.35.75.6,0-.13-.1-.39-.16-.53-.01-.02-.02-.03-.03-.04-.05,0,0,.08-.04.07-.05-.14,0-.49-.2-.55-.09-.01-.07.14-.1.17-.02,0-.08-.11-.11-.15-.08-.13-.25-.32-.38-.16-.04.05.02.09,0,.14,0,.02-.07,0-.14.01-.14.02-.32.08-.32.24M32.46,20.48c-.13,0-.23.12-.23.27h.45c0-.15-.1-.27-.23-.27M33.07,8.58c.04.07.11.15.15.2.04.05.02.08-.02.09-.08.03-.11.12-.03.21.07.1.27.18.33.25,0,.06-.1.06-.09.17,0,.13.14.16.18.17.04,0,.11-.04.13-.02,0,0-.02.03-.04.06-.12.1-.01.2.1.21.1,0,.22-.12.17.04,0,.04.07.09.09.12.02.03.03.1.03.12.02.04.11.1.13.02,0-.18-.09-.37-.14-.55-.1-.28-.23-.57-.43-.78-.03-.03,0,0,.01.01.33.34.5.82.62,1.26.07-.14.07-.6.03-.75-.05-.04-.04.07-.07.04,0,0,0-.04.02-.1.05-.19.15-.47,0-.63-.09-.08-.12.1-.18.11-.05-.06-.09-.78-.41-.66-.06.02-.02.1-.04.15,0,.01-.07-.04-.16-.08-.33-.16-.6-.01-.37.32M30.67,15.38h.26v-.36h-.26v.36ZM30.96,20.83h-.21v.55h.21v-.55ZM29.69,18.51h-.12l-.08.06v.02s.09-.05.09-.05h.12v-.02ZM29.48,19.02v.02s.08-.05.08-.05h.12v-.02h-.12l-.08.05ZM30.87,17.12c0,.25-.27.24-.27,0s-.34.29-.34.29h.96s-.35-.52-.35-.3M29.69,18.82h-.12l-.08.05h0s.08-.03.08-.03h.12v-.02ZM32.57,17.12c0,.25-.27.24-.27,0s-.34.29-.34.29h.96s-.35-.52-.35-.3M16.83,20.14h.25l.04-.1h-.32l.04.1ZM29.69,18.66h-.12l-.08.05h0s.08-.04.08-.04h.12v-.02ZM22.37,19.05h.35l.03-.03h-.38v.03ZM22.53,18.8c0-.06-.08-.06-.08,0,0,.06.08.06.08,0M21.89,18.85v-.03c-.11,0-.25.04-.33.1.08-.05.23-.07.33-.07M21.93,18.56c0-.06-.08-.06-.08,0s.08.06.08,0M22.87,19.13h.03c0-.06.04-.11.08-.11-.06-.01-.11.05-.11.11M18.42,8.93c.1.2.22.4.38.56-.16-.2-.28-.43-.37-.68,0,.04-.01.07-.01.11M19.87,14.49c2.18.45,2.71-1.3,2.59-1.89.14.72,0,1.86-1.32,2.26.19,0,.42.09.6.01.63-.35,1.06-1.28.93-2.26,0,0,.08.32.07.76,0,.47-.16.81-.56,1.53.22-.01.43-.04.64-.08.18-.43.32-1.16.18-1.93.19.32.39,1.03.18,1.84.12-.03.23-.07.35-.11.12-.46.08-.95-.1-1.38.2.36.29.59.31,1.3.06-.03.13-.06.19-.08,0-.08,0-.19,0-.35,0-.65-.2-1.04-.44-1.2-.08-.07-.15-.12-.22-.12-.03-.07-.18-.2-.3-.14-.09-.11-.3-.08-.31-.08-.06-.13-.4-.17-.43-.14.21.49.17.93-.57,1.46-.6.43-2.97.14-3.77-.95.51.67,1.19,1.21,1.97,1.56M26.61,18.03h.15v-.21h-.15v.21ZM27.53,17.82h-.15v.21h.15v-.21ZM18.12,18.95l-.77-1.6-.47-.77.69,1.58.55.79ZM20.5,12.33c-.07.06-.13.12-.17.18.16.21.35.28.52.31.01,0,.03,0,.04,0-.24-.13-.34-.32-.39-.49M21.06,19.05h.35v-.03h-.38l.03.03ZM28.86,17.77c0,.19-.07.24-.07.06s-.08.29-.08.29c.1-.08.14-.12.24-.19,0,0-.09-.33-.09-.16M21.33,18.8c0-.06-.08-.06-.08,0,0,.06.08.06.08,0M20.81,19.01s.08.06.08.11h.03c0-.07-.05-.12-.11-.11M21.89,18.82v.03c.1,0,.25.02.33.07-.08-.06-.22-.1-.33-.1M26.9,16.58l-.47.77-.77,1.6.55-.79.69-1.58ZM24.52,12.09c.01.06.07.16.13.23.03.06.08.12.15.15,0,.1,0,.26,0,.36v.74s.07-.19.07-.19c0-.2,0-1.09,0-1.12.04.04.2.11.24.11,0,0,.02,1.25.02,1.3.13-.12.26-.24.38-.37-.04-.31-.11-.7-.15-.77-.05-.1-.13-.27-.18-.34-.05-.08-.13-.11-.13-.11-.13-.01-.21-.12-.24-.14-.03-.02-.06.01-.14.03s-.07-.06-.07-.06c.03,0,.19-.12.23-.13.04,0,.27.07.28.07,0,0,.06,0,.06,0-.05-.06-.39-.19-.41-.2-.02-.01-.13.1-.17.15-.03.05-.08.01-.08.01,0,0-.03.06,0,.3M24.89,11.48c.12,0,.4.18.42.2.02.01.02-.09.02-.09,0,0-.02-.08-.07-.08-.05,0-.14-.08-.17-.12-.03-.04-.07-.06-.08-.05,0,.01-.03.03-.12.02-.1,0-.21.03-.23.07-.03.04-.07.04-.07.04-.09.12-.04.25-.04.25.04-.1.24-.24.36-.24M20.41,10.72c.12-.4.42-.63.69-.74,0,0-.31.34-.41.69-.03.1-.06.19-.1.27-.23.46-.64.65-.64.65,0,0,.25-.2.45-.87M20.92,9.43s.05-.03.08-.04c.26-.11.4-.27.4-.27,0,0-.05.26-.36.4-.1.04-.17.08-.23.11-.12.06-.16.11-.23.18,0,0,.06-.22.34-.37M18.25,7.84c-.14.12-.03.34-.02.5.2-.28.43-.51.88-.73,0,0-.52.26-.75.7,0,0-.06.1-.07.18,0,0,0,0,0,0,.13-.2.37-.41.66-.56-.2.17-.4.39-.5.81.08.18.16.33.24.45.05.07.13.17.19.25l.14-.11c-.06-1.2.1-1.71.74-1.72-.56.71-.76,1.39-.18,2.2.13.17.25.35.26.56-.01.27-.08.47-.31.74.13-.06.4-.26.51-.43,0,0,.04.23-.18.48-.05.06-.11.1-.17.14-.3.21-.37.47-.38.66,0,.06,0,.13,0,.21,0,.29-.35.39-.35.39,0,0-.05.01-.07.02.11,0,.21-.03.31-.06.26-.09.32-.22.36-.32,0,0,0,.01,0,.04,0,.32.23,1.14.74,1.22-.18-.24-.35-.85-.07-1.16.2-.24.51-.4.63-.7.13.17.26.28.61.37-.18-.15-.28-.34-.35-.52-.05-.14-.08-.29-.08-.44.04-.05.05-.24.06-.34.03-.26.11-.48.24-.62-.02.06-.12.32-.09.58l.09-.14c0,.09,0,.25.02.34.04.14.13.27.26.35.05.03.1.06.15.08,0,0,0,.08,0,.1.03.33.14.58.14.58l.02-.09c0-.32.05-.45.1-.51.11-.01.27.09.38.1.37.06.47.05.61-.06-.05.02-.1.03-.16.03-.59,0-1.38-.65-1.05-1.21.06-.12.11-.23.08-.35-.02-.07-.03-.15-.03-.23,0-.17.02-.34.13-.46.04-.06.22-.15.23-.14-.12.01-.21.04-.31.1-.17.12-.23.37-.4.46-.18.12-.39.16-.6.15.02,0,.06-.01.1-.02.19-.06.39-.16.5-.35.26-.42.36-.53.56-.65.18-.11.35-.13.35-.13.06-.01.13-.02.21-.01,0,0,.02-.03.07-.05-.12-.04-.25-.06-.37-.08-.66-.02-1.01.16-1.67.66.65-.4,1.21-.48,1.21-.48-.86.28-1.21.54-1.52.97-.1.13-.24.42-.31.64-.14-1.45,1.71-1.91,1.9-2.02.08-.06-.05-.1-.29-.17-.25-.08-1.12-.21-.73-.55.13-.11.33-.19.33-.19-.85.05-1.18.75-1.18.75-.09-.17-.07-.36-.01-.52.1-.11.38-.36,1.08-.51-.02,0-.6.03-.97.28.25-.34.8-.4.89-.41-.05-.35-.22-.96.61-1.46l-.09-.38c-.97.52-.93,1.21-.81,1.58-.23-.31-.34-.75-.34-.75-.09.3.19.76.19.76-.49-.33-.79-.86-.63-1.36.18-.08.37-.14.58-.18-.07.18,0,.42,0,.42-.05-.3.18-.43.25-.47.1-.01.21-.03.32-.03-.58,0-1.08.12-1.49.34,0,.03,0,.06,0,.1.02.24.14.64.64,1.12,0,0-.6-.38-.85-.98-.03-.19-.2.05-.29.1.02.03.04.06.06.08.14.21.41.51.89.87,0,0-.59-.28-1-.76-.09-.18-.19.07-.28.15.2.27.46.55.91.74-.28-.09-.58-.23-.93-.53-.13-.18-.22.18-.3.28.22.08.51.19.73.25-.23-.04-.55-.11-.78-.13-.03.13-.28.54-.03.43.44-.12,1.24-.07,1.19-.06-.46-.01-.84.06-1.23.18-.22.02-.14.32-.17.48.25-.14.6-.33.84-.36.01-.01-.53.21-.77.49M28.56,18.29c-.12.11-.22.13-.19.23.03.41,0,.67,0,1.09,0,0,0,0,0,0,0-.42,0-.68,0-1.1.09-.08.18-.09.17-.22M25.21,11.1s-.15-.09-.19-.1c-.03,0-.17,0-.18,0-.08,0-.16,0-.23-.04,0,0-.02,0-.02,0-.03.04,0,.08.03.11.06.06.12.1.22.1.1,0,.2-.05.28.01.05.05.15.13.17.16.03.03.03.12.03.12,0,0,.09-.05.03-.24-.02-.05-.09-.09-.14-.12M28.49,18.09c0,.18-.06.22-.06.05,0-.17-.07.27-.07.27.08-.07.12-.1.2-.17,0,0-.07-.32-.07-.15M28.51,19.34c0-.34,0-.51,0-.84-.04.03-.06.04-.1.07,0,.33,0,.5,0,.83.04-.03.06-.04.1-.07M23.38,10.21c-.22-.26-.37-.51-.44-.75-.06.04-.1.1-.1.1l.06-.16c-.41-.12-.4-.11-.7.05.07,0,.21-.04.33-.03.06.01.12.04.02.03-.14-.01-.26.11-.39.09-.02,0-.05-.03-.02,0,.06.07.19.11.29.06-.03.06.03.11.08.1.03,0,.09-.04.11-.1.02.03,0,.07,0,.1,0,.02,0,0,.02,0,0,.08.05.13.16.18.17.1.22.17.13.21-.13.05-.14.13-.04.23.12-.03.21,0,.25.11.11-.04.18-.12.23-.23M22.94,10.9c.07,0,.08-.03.11-.04-.07-.04-.28,0-.28,0l.16.03ZM23.08,8.71c-.09-.03-.2-.13-.29-.11-.14.1-.2.27-.58.24,0,0,.22.09.61-.05.12-.04.2-.07.26-.08M23.08,10.76s.02.01.02,0c.08-.07.06-.2-.06-.16-.1.05-.19.16-.32.12,0,.01.02.04.05.06.1-.03.21-.04.32-.03M24.79,6.02c.04-.16.08-.3.11-.42l.02,2.58c0,.19,0,.48,0,.68,0-.06,0,.12,0,.12-.03,0-.1.03-.1-.01l.04-.51s0-.26-.05-.33c-.06-.11-.17-.17-.23-.2,0-.52.06-1.34.22-1.9M24.79,8.35l-.07.7s.05.02.05.02c0,0,.01,1.87.02,1.87,0,0,.08-.02.09-.02,0,0-.03-1.61.03-1.75.05.01.18.08.21.18v-.26s-.01-.03-.01-.03c.02,0,.07.02.06-.02l-.14-.71c.02-.1.07-.17.12-.22.04-.05.16-.11.19-.12.02-.86-.11-1.8-.39-2.61l-.05-.1c-.08.17-.14.43-.21.7-.16.57-.23,1.44-.22,2,0,0,.27.07.31.36M21.81,7.29c.45.12.69.36,1.19.71-.03-.04.67.62.67.61.16.14-.03.09-.27.12-.06,0-.11,0-.15,0,.11.1.1.2.1.2-.05-.04-.16-.11-.2-.12.06.07.12.22.08.32,0,.02-.05.15-.03.13,0,.06.01.12.04.17,0-.05.02-.14.05-.2.47-.03.72-.53.72-.53,0,0-.11-.12-.39-.32l.21-.19s.01-.05-.02-.06c-.16-.03-.6-.16-1.44-.78-.15-.12-.34-.18-.54-.18-.1,0-.21.02-.32.05l.31.06ZM24.63,11.22s-.11-.09-.13-.08c-.02,0-.06.03-.06.14,0,.11.02.18.02.18,0,0,.02-.2.17-.24M30.79,14.43l.39.39h-.08l-.29-.26-.29.26h-.11l.39-.39ZM30.53,14.83l.27-.2.27.2h-.54ZM31.14,15.61c-.05,0-.12,0-.16.03-.1.08-.29.08-.39,0-.04-.03-.08-.03-.12-.03-.04,0-.06-.05-.05-.09l.15-.35v-.14c0-.06.04-.11.09-.11h.28c.05,0,.09.05.09.11v.14l.15.35s0,.09-.05.09M31.79,15.51l.15-.35c0-.08-.02-.25.09-.25h.28c.12,0,.09.17.09.25l.15.35c.03.1-.05.09-.12.09-.1.01-.16.11-.28.09-.12.01-.18-.08-.28-.09-.06,0-.11-.02-.08-.09M28.14,17.95v-.1l1.43-1.27h3.97s.34-.23.34-.23l-.36.06h-3.95s-1.54,1.44-1.54,1.44h.07v.02h-.12s1.59-1.55,1.59-1.55c.19,0,4.35-.02,4.39-.01l-.9-.68-.62-.8h-.54l.27-.2.38.28-.38-.34-.29.26h-.1l.37-.37-1.3-1.81-1.08,3.21-.39.49-1.58,1.56c.08.01.26.04.34.05M28.36,22.76l.04-.1h.08s-.09-.06-.09-.06l-.08.18.06-.03ZM28.6,20.81l-.24.1v1.05l.24-.06v-1.09ZM28.61,22.64l-.13-.16h-.12l-.13.34.15-.29.12.11h.11ZM29.1,21.76l.27-.07v-1.21l-.27.12v1.17ZM28.37,22.09s.04,0,.05.06c.03.17.11.11.13-.03.01-.06.02-.09.05-.09v-.03c-.1.02-.14.04-.24.06v.03ZM29.1,21.9s.05.01.06.07c.01.08.04.12.07.12.07,0,.06-.25.13-.25v-.04l-.27.07v.03ZM29.3,20.13h-.13l-.15.39.17-.33.13.13h.13l-.15-.18ZM29.3,20.36l-.1-.08-.09.21.06-.03.04-.11h.09ZM27.92,22.27c.03.15.13.1.15-.04.01-.06.03-.08.06-.09v-.03c-.11.03-.16.04-.27.07v.03s.05,0,.06.06M27.94,20.94h.07s-.08-.05-.08-.05l-.07.17.05-.03.03-.09ZM28.13,21.01l-.27.12v.97l.27-.07v-1.01ZM28.5,20.56h-.1l-.11.29.12-.25.1.1h.1l-.11-.14ZM28.35,20.82l.05-.02.03-.08h.07s-.08-.05-.08-.05l-.07.15ZM27.92,22.83l.03-.08h.07s-.08-.05-.08-.05l-.07.16.05-.02ZM28.14,22.72l-.12-.14h-.1l-.12.3.13-.26.1.1h.1ZM29.44,22.51l-.15-.18h-.13l-.15.39.17-.33.13.13h.13ZM29.69,24.33h-.2s0,.01,0,.01h.08s.12,0,.12,0v-.02ZM28.87,20.38h-.11l-.12.32.14-.27.11.1h.1l-.12-.15ZM29.69,24.03s-.15,0-.2,0v.02h.08s.12,0,.12,0v-.02ZM29.69,23.11s-.15,0-.2,0v.02s.15,0,.2,0v-.02ZM29.69,23.87h-.12s-.08,0-.08,0v.02s.15,0,.2,0v-.02ZM29.69,22.96s-.15,0-.2,0v.02s.15,0,.2,0v-.02ZM29.69,24.5v-.02s-.15,0-.2,0v.02s.15,0,.2,0M29.69,24.18h-.2s0,.01,0,.01h.08s.12,0,.12,0v-.02ZM28.8,20.55h.07s-.08-.06-.08-.06l-.08.17.05-.03.04-.09ZM28.97,20.65l-.24.1v1.11l.24-.06v-1.15ZM28.78,22.06c.03.18.11.12.13-.03,0-.05.02-.09.04-.09.02,0,0-.02.01-.04-.1.02-.14.04-.24.06v.03s.04.01.05.07M29.16,22.65l.04-.11h.09s-.1-.07-.1-.07l-.09.21.06-.03ZM28.77,22.68l.04-.1h.08s-.09-.06-.09-.06l-.08.18.06-.03ZM28.01,20.77h-.1l-.12.31.13-.27.11.1h.1l-.12-.15ZM29.02,22.56l-.13-.16h-.11l-.13.34.15-.29.12.11h.11ZM27.39,21.34l-.21.09v.86l.21-.06v-.89ZM26.63,21.62l-.06-.05-.06.12.04-.02.03-.07h.06ZM26.62,21.48h-.08l-.09.24.1-.2.08.08h.08l-.09-.11ZM26.39,23l-.08-.1h-.07l-.08.2.09-.17.07.07h.07ZM26.7,21.64l-.21.09v.75l.21-.06v-.78ZM26.7,22.95l-.09-.11h-.08l-.09.24.1-.2.08.08h.08ZM26.53,23.04l.03-.07h.06s-.06-.04-.06-.04l-.06.12.04-.02ZM26.7,22.49c-.09.02-.13.03-.21.06,0,.01,0,.03,0,.02.05,0,.04.13.1.12.05,0,.05-.15.1-.17.01,0,0-.01,0-.03M26.36,21.79l-.14.06v.71l.14-.04v-.73ZM30.47,24.55s0-1.45,0-1.47c0-.34-.09-.61-.21-.59-.11.02-.21.29-.21.62,0,.58,0,.99.01,1.57.16.02.24.03.39.04v-.17ZM26.32,21.64h-.07l-.08.2.09-.17.07.07h.07l-.08-.1ZM30.96,20.75c0-.36-.45-.36-.45,0,0,0,.46,0,.45,0M26.96,21.3h-.09l-.1.27.12-.23.09.09h.09l-.1-.13ZM26.24,23.07l.02-.06h.05s-.05-.03-.05-.03l-.05.11.03-.02ZM26.23,22.63s.03.13.07.11c.04,0,.03-.15.07-.15v-.02c-.06.01-.08.02-.14.04v.02ZM26.22,21.82l.03-.02.02-.06h.05s-.05-.03-.05-.03l-.05.11ZM27.17,21.38l.04-.02.03-.07h.06s-.07-.05-.07-.05l-.06.14ZM27.64,20.97h-.09l-.1.27.12-.23.09.09h.09l-.1-.13ZM27.4,22.84l-.1-.13h-.09l-.1.27.12-.23.09.09h.09ZM27.73,21.19l-.21.09v.91l.21-.06v-.95ZM27.58,21.11h.06s-.07-.05-.07-.05l-.06.14.04-.02.03-.07ZM27.55,22.88l.03-.08h.07s-.08-.05-.08-.05l-.07.15.05-.02ZM27.21,22.93l.03-.08h.06s-.07-.05-.07-.05l-.06.14.04-.02ZM27.57,22.36c.02.14.1.1.12-.03,0-.04.02-.07.04-.08.02,0,0-.02,0-.03-.09.02-.13.03-.21.06v.03s.04,0,.05.05M27.18,22.39c.06-.03.04.15.11.13.06,0,.05-.18.11-.19v-.03c-.09.02-.13.03-.21.06v.02ZM27.05,21.49l-.21.09v.8l.21-.06v-.84ZM26.83,22.48s.04,0,.05.05c.03.13.1.08.12-.03,0-.05.02-.07.05-.07v-.03c-.09.02-.13.03-.21.06v.02ZM26.88,22.99l.03-.07h.06s-.07-.04-.07-.04l-.06.13.04-.02ZM27.06,22.9l-.1-.12h-.08l-.1.25.11-.21.09.08h.08ZM26.82,21.55l.04-.02.03-.07h.06s-.07-.05-.07-.05l-.06.14ZM27.3,21.14h-.09l-.1.27.12-.23.09.09h.09l-.1-.13ZM27.76,22.78l-.11-.13h-.1l-.11.28.12-.24.1.09h.09ZM30.71,20.83h-.21v.55h.21v-.55ZM32.11,31.38c-.08-.05-.19-.08-.28-.09-.11-.02-.2,0-.2-.03,0-.06.09-.11.05-.18-.13-.17-.31-.05-.45.04-.23.15-.37.35-.32.09,0-.05,0-.09-.07-.1-.23-.04-.36.33-.5.44-.02,0,0-.02,0-.04,0-.02.02-.04-.02-.05,0-.03-.24.11-.14.03-.09.08-.23.18-.24.31.3-.15.6-.09.92-.11.11,0,.23,0,.33,0-.23-.01-.47.02-.71.03-.15,0-.43.05-.51.15,0,0,0,.03.03.06.04.03.09.03.11.02.01,0,.05-.03.09-.03.03,0,.12.03.14.01.01-.02,0-.04.03-.04.03.02.18.23.33.22.03,0-.04-.12-.02-.12.08.08.16.17.28.21.1.08.47.25.59.04.06-.11-.09-.18.07-.22.15-.03.36-.1.49-.21.13-.11.17-.33.01-.42M14.1,18.99h.12l.08.05v-.02s-.07-.05-.07-.05h-.13s0,.02,0,.02ZM14.1,18.83h.12l.08.05h0s-.08-.07-.08-.07h-.12v.02ZM14.6,15.61h.01s.13.3.13.3v.52l-.14-.18v-.64ZM14.87,16.08h.06s.05.1.05.1c0,0,0,.49,0,.49l-.1-.14v-.45ZM14.95,15.91l.17.35-.07.09-.07-.15.05.03-.1-.21-.03.02-.03-.06.07-.07ZM14.05,15.78l1.48,1.6-.23-.48v-.34l.05.03-.1-.21-.11.08h.09s.03.06.03.06c0,.11,0,.38,0,.49l-.15-.19v-.31l-.05-.1h.06l.14-.13.17.35-.16-.41h-.14l-.04.04-.15-.4h-.14s-.19-.39-.19-.39l.02-.02.18.35-.16-.4h-.07l-.86-1.83-.71-.9,1.03,3.13ZM14.66,19.14v-1.1s.01-.03.02-.05c0-.05,0-.09.01-.13-.1-.08-.15-.13-.26-.21,0,.15.1.16.22.27v1.22s0,0,.01,0M14.1,18.38h.12l.07.05h0s-.08-.07-.08-.07h-.12v.02ZM14.1,18.68h.12l.08.05h0s-.08-.07-.08-.07h-.12v.02ZM14.1,18.23h.12l.08.06h0s-.08-.07-.08-.07h-.12v.02ZM14.1,18.53h.12l.08.05v-.02s-.07-.06-.07-.06h-.12v.02ZM15.28,19.34s.06.04.1.07c0-.33,0-.5,0-.83-.04-.03-.06-.04-.1-.07,0,.34,0,.5,0,.84M15.22,18.29c0,.13.08.14.17.22,0,.42,0,.68,0,1.1.02-.36,0-.6,0-.98.02-.06.01-.11.02-.17-.08-.07-.12-.1-.2-.16M14.6,17.5c0,.19-.07.14-.07-.07,0-.18-.1.16-.1.16.1.08.16.13.26.21,0,0-.09-.5-.09-.31M15.35,18.14c0,.17-.06.13-.06-.05,0-.17-.07.15-.07.15.08.07.12.1.2.17,0,0-.07-.44-.07-.27M15.05,19.39c0-.38-.02-.76.02-1.14,0-.03,0-.04.01-.07-.09-.08-.14-.12-.24-.19,0,.14.1.15.2.25,0,0-.02,1.16,0,1.16M14.99,17.83c0,.18-.07.14-.07-.06,0-.17-.09.16-.09.16.09.08.14.12.24.19,0,0-.08-.47-.08-.29M15.01,19.16v-.87s-.07-.05-.11-.09v.89s.07.04.11.07M14.62,18.9v-.92s-.08-.06-.12-.1v.94s.07.05.12.08M13.19,17.12c0,.24-.27.25-.27,0,0-.23-.35.3-.35.3h.96s-.34-.53-.34-.29M14.1,16.86h.12l.07.07h0s-.08-.08-.08-.08h-.13v.02ZM13.27,17.7h-.21v.55h.21v-.55ZM13.02,17.7h-.21v.55h.21v-.55ZM13.07,18.85h.21v-.55h-.21v.55ZM14.1,18.08h.12l.07.05h0s-.08-.07-.08-.07h-.12v.02ZM14.3,16.76l-.08-.07h-.13v.02h.12l.07.07h0ZM12.82,18.85h.21v-.55h-.21v.55ZM14.1,17.77h.12l.07.05h0s-.08-.07-.08-.07h-.12v.02ZM14.1,17.62h.12l.08.06h0s-.08-.08-.08-.08h-.12v.02ZM14.1,17.92h.12l.07.05h0s-.08-.07-.08-.07h-.12v.02ZM14.1,17.47h.12l.08.06h0s-.08-.07-.08-.07h-.12v.02ZM14.1,17.16h.12l.07.07h0s-.08-.08-.08-.08h-.13v.02ZM14.1,17.01h.12l.07.07h0s-.08-.08-.08-.08h-.13v.02ZM14.1,17.32h.12l.07.07h0s-.08-.08-.08-.08h-.13v.02ZM8.92,11.72c.72-.26,1.11-.98,1.63-1.49-.39.42-.68.96-1.16,1.28-.07.1-.64.25-.37.27,1.13-.08,1.73-1.26,1.89-1.88,0,0-.68-.02-1.25.5-.4.37-.63.9-.74,1.19-.02.05-.02.1,0,.14h0ZM23.51,33.92c.08-.09-.05-.15-.06-.22,0-.03.16-.03.31-.08.08-.03.15-.06.2-.12.05-.04.12-.24.02-.27-.12,0-.03-.06.02-.2.17-.43.1-.79-.34-.32-.04.04-.06.01-.06-.03-.02-.27-.26.06-.31.17-.05.08-.08.14-.1.15-.03,0-.02-.07-.06-.11l-.24-.05c-.17-.05-.33.07-.32.23,0,.04.08.12.06.15-.04.01-.17-.11-.24-.07-.1.04-.11.15-.09.22,0,.05.12.14.11.19-.01.03-.04,0-.08.02-.04.01-.08.12-.1.15-.06.08-.15.1-.12.21.06.1.13-.02.19-.06.15-.12.33-.23.5-.32l.11.02c.2-.09.4-.21.56-.37.02-.01.03-.04.05-.05-.11.15-.27.26-.43.36-.06.04-.12.07-.19.1l-.1-.02c-.2.12-.39.25-.56.41.16,0,.35-.08.52-.09.08.02.27.02.2-.06-.01-.01-.03-.02-.01-.04.15.04.41.28.58.08M26.16,34.15c-.09-.07-.23-.11-.35-.15-.13-.03-.26-.04-.25-.06.01-.04.05-.07.08-.1.12-.13-.11-.25-.22-.22-.19-.01-.77.34-.82.3-.02-.08.12-.24-.03-.28-.28-.08-.55.33-.76.43-.03-.01,0-.03.01-.05.07-.11-.11-.06-.24-.02.1-.07-.04.02-.08.04-.09.06-.26.15-.26.25.49-.14.95,0,1.45.03.08.01.14.02.2.03-.27-.04-.56-.04-.83-.06-.27-.02-.52-.04-.79.06.01,0-.06.03,0,.09.12.08.15.02.25.02.04,0,.16.05.18.03.02-.02.01-.05.04-.04.04.03.1.15.16.19.07.06.28.2.23.03-.01-.03-.02-.07,0-.06.1.11.16.2.32.28.12.11.56.35.76.13.11-.12-.07-.22.15-.25.28-.03.71-.08.88-.35.06-.12.03-.23-.07-.3M27.26,33.08c.08-.12-.07-.16-.09-.24,0-.03.18-.06.35-.14.17-.08.32-.22.27-.43,0-.04-.03-.05-.05-.05-.14.01-.04-.07,0-.23.17-.54.04-.9-.42-.31-.05.05-.07.03-.07-.03,0-.1-.07-.17-.17-.04-.1.1-.2.39-.28.46-.03.01-.03-.08-.08-.11-.09,0-.3-.03-.4,0-.16.01-.25.2-.23.31,0,.03.03.06.05.09.07.09.03.1-.08.05-.06-.02-.12-.04-.17-.01-.12.06-.11.19-.09.27,0,.06.14.15.14.2-.02.03-.05.02-.1.04-.05.02-.08.15-.1.19-.02.05-.09.1-.11.12-.03.04-.04.16.03.17.03,0,.04-.01.06-.02.17-.18.39-.38.61-.53.06-.05.1-.04.18-.03.25-.16.5-.34.67-.58-.17.26-.42.46-.68.63h-.12c-.22.16-.43.34-.61.55-.01.01.02,0,.03,0,.17-.04.37-.15.55-.19.08,0,.23-.02.23-.04.05-.07-.06-.05-.03-.1.02-.02.13.04.18.06.16.06.39.11.5-.06M20.71,33.01c-.57-.34-1.22-.18-1.22-.18,0,0,.27.71.84,1.05.4.24.84.23,1.06.2.04,0,.07-.03.09-.06h0c-.39-.55-1.06-.68-1.63-.98.59.24,1.27.38,1.64.96,0-.03,0-.07-.01-.11-.12-.23-.37-.65-.77-.89M17.82,33.41c-.22-.29-.48-.64-.8-.85-.31-.23-.64-.36-.92-.61.47.32,1,.5,1.38.95.1.06.44.72.34.37-.38-1.03-1.18-1.72-2.1-1.63,0,0,.27.91.87,1.42.42.36.89.42,1.13.43.05,0,.08-.02.1-.06M18.34,34.37c.66.17,1.39.2,2.03.03,0-.05-.03-.1-.08-.14-.28-.19-.85-.52-1.51-.55-.94-.04-1.72.53-1.72.53,0,0,.76.65,1.7.69.66.03,1.24-.24,1.52-.41.05-.03.07-.07.08-.11-.21.08-.43.13-.66.15-.7.08-1.37-.2-2.06-.3.23,0,.46.05.69.1M29.78,32.84c-.08-.06-.21-.09-.31-.1-.12-.02-.23-.01-.22-.04.01-.07.12-.11.08-.19-.05-.09-.13-.11-.23-.09-.17,0-.65.37-.7.34-.02-.06.1-.22-.04-.25-.25-.05-.46.34-.64.45-.02-.01,0-.03,0-.05s.02-.04,0-.06c-.02,0-.1.02-.2.06.01-.01.03-.02.04-.03-.11.08-.29.18-.33.33.42-.17.83-.08,1.27-.08.07,0,.12,0,.18.02-.24-.02-.49,0-.73,0-.2,0-.37,0-.58.08-.04.02-.1.03-.12.06-.03.07.11.1.14.09.02,0,.07-.03.1-.03.04,0,.14.03.16.02.02-.02,0-.04.04-.04.01,0,.03.03.06.07.06.09.2.19.29.17.03,0-.03-.13-.01-.12.09.09.15.18.29.23.08.06.27.16.44.16.13,0,.29-.1.25-.23-.02-.04,0-.09.09-.11.24-.04.62-.13.74-.38.05-.11.02-.21-.08-.27M37.3,22.58c-.09.04-.16.11-.17.08-.02-.08.03-.18-.03-.23-.08-.06-.14-.03-.2.03-.15.16-.21.57-.32.73-.05-.04-.04-.27-.15-.22-.22.16-.14.61-.21.83-.04,0,.01-.11-.05-.1-.1.12-.16.34-.24.48-.03.07-.09.18-.07.23.4-.29.74-.67,1.14-.96-.32.25-.74.72-1.11,1.03,0,.01-.04.05,0,.11.1.08.12-.02.19-.05.04,0,.12,0,.14-.03.02-.04,0-.08.03-.08.02,0,.08.15.13.19.05.04.15.09.19.01.04-.07-.02-.25,0-.26.03,0,.07.11.11.14.02.01.06.04.11.04.05,0,.1-.02.14-.11.06-.17-.03-.24,0-.3.03-.05.26,0,.42-.15.12-.1.13-.27.05-.36-.04-.03-.04-.08,0-.15.06-.07.15-.18.2-.29.21-.34.18-.89-.32-.63M37.85,19.62c.16-.33.16-1.2-.36-.67-.07.07-.12.16-.13.14-.04-.06-.01-.18-.08-.2-.08-.03-.13.02-.17.11-.08.14-.08.8-.12.8-.05-.02-.1-.24-.18-.14-.04.05-.06.13-.07.21-.02.2.07.47.07.65-.03.03-.02-.1-.07-.07-.05.13-.06.32-.09.47-.02.1-.05.32-.02.33.28-.44.49-.95.79-1.38-.18.26-.3.57-.45.85-.09.19-.21.4-.3.58,0,.03-.02.06.03.1.11.03.1-.07.16-.13.03-.02.11-.05.12-.09-.01-.2.07,0,.17.04.06.02.15.03.18-.07.03-.06-.07-.2-.06-.24.02-.01.09.07.13.08.17.04.26-.18.17-.35-.02-.04-.04-.06-.04-.09.07-.09.27-.15.33-.31.07-.14.06-.29-.04-.35-.09-.04-.02-.17.02-.27M36.05,25.67c-.1.03-.17.09-.18.07-.03-.07.02-.17-.04-.23-.08-.07-.15-.05-.21,0-.13.09-.26.71-.31.69-.06-.09-.07-.37-.24-.17-.13.2-.07.55-.13.74-.04,0,0-.1-.06-.1-.04.01-.13.22-.18.3-.05.1-.17.3-.15.37.33-.19.64-.42.94-.64.09-.06.18-.13.28-.18-.18.11-.34.26-.51.39-.21.18-.45.35-.67.5-.02.03-.04.04,0,.11.11.09.13,0,.21-.02.04,0,.13.02.15-.01.02-.03,0-.07.03-.07.03,0,.09.16.14.21.06.05.16.11.21.04.05-.05-.03-.23,0-.26.03,0,.08.12.12.15s.2.13.27-.03c.07-.12-.03-.22,0-.3.1-.05.32.02.45-.1.12-.08.13-.29.05-.37-.06-.05-.03-.14.04-.2.06-.07.11-.14.17-.23.24-.38.11-.85-.38-.66M34.5,28.56c-.09-.03-.2-.02-.29,0-.1.02-.19.06-.19.04-.01-.07.06-.16,0-.22-.25-.21-.46.31-.57.47-.04.07-.07.12-.08.11-.04-.05,0-.26-.13-.24-.26.1-.23.54-.35.72-.05,0,.03-.1-.04-.11,0,0-.03.01-.05.03-.12.16-.34.34-.42.52.32-.1.65-.23.95-.38.15-.06.3-.16.45-.21-.42.2-.83.46-1.27.62-.05.02-.1.03-.13.06,0,0-.02.03,0,.08.03.05.08.06.1.06s.08-.04.11-.03c.04,0,.13.04.16.01.08-.17.08.07.15.16.1.14.25.13.24-.07,0-.23.05-.01.1.06.15.17.35.04.33-.17,0-.05-.01-.08,0-.1s.09,0,.18,0c.12.02.27,0,.36-.09.07-.07.11-.17.09-.27-.03-.08-.09-.11,0-.2.06-.05.18-.14.25-.22.18-.15.3-.57.03-.65M14.94,32.43c-.84-.23-1.65.1-1.65.1,0,0,.56.7,1.41.92.59.16,1.16.04,1.45-.04.31-.14-.42-.02-.53-.08-.65-.07-1.2-.45-1.8-.66.42.1.79.32,1.19.46.39.16.84.18,1.23.19,0-.04,0-.09-.05-.13-.22-.22-.67-.61-1.26-.77M29.69,23.27s-.15,0-.2,0v.02s.15,0,.2,0v-.02ZM32.32,29.33c.11-.16.22-.36.1-.54-.04-.06-.09.03-.14.02-.02,0,0-.11,0-.24-.06-.82-.37-.61-.52-.01-.02.08-.05.07-.08.02-.15-.24-.17.29-.18.39-.01.12.01.29-.08.19-.09-.09-.17.05-.17.15,0,.07,0,.13,0,.16,0,.05.06.14.06.17-.02.03-.11-.1-.15-.05-.06.05-.05.19-.04.26.01.08.09.19.08.22,0,.03-.03.01-.06.03-.03.02-.05.14-.07.19-.06.1-.12.11-.11.25.01.05.05.05.05.05.37-.37.7-.93.81-1.46,0,.02,0,.06-.01.09-.1.53-.4,1.01-.73,1.43-.01.02.04,0,.07,0,.16-.05.53-.3.53-.36.01-.09-.08-.02-.06-.08,0-.03.13-.03.27-.07.13-.04.28-.14.31-.3.01-.08-.02-.11-.06-.12-.04-.01-.09-.01-.1-.04.03-.09.19-.21.27-.33M7.63,23.59s.07-.02.09-.06c.15-.25.41-.77.43-1.41.02-.91-.46-1.72-.46-1.72,0,0-.52.66-.54,1.57-.02.64.22,1.23.36,1.52.03.06.07.09.11.09.02-.19.12-.41.13-.62.1-.66-.08-1.33-.07-1.99.06.86.32,1.79-.05,2.62M9.51,10.17c.03-.8.6-1.44.98-2.1-.25.53-.66.99-.83,1.56-.07.17-.08.39-.14.55.03.01.08,0,.12-.03.89-.67,1.23-1.71,1.06-2.53,0,0-.7.46-1.04,1.19-.24.51-.23,1.02-.21,1.28,0,.04.02.07.05.08M11.49,17.12c0,.24-.27.25-.27,0,0-.23-.35.3-.35.3h.96s-.34-.53-.34-.29M9.26,25.83c.1.41.11.86.03,1.28.03-.02.06-.05.08-.1.1-.3.25-.9.16-1.5-.13-.86-.69-1.41-.69-1.41-.32.72-.48,2.04.33,2.97.03.04.07.05.11.04h-.01c.06-.42.04-.86-.05-1.26-.08-.41-.25-.79-.3-1.21.09.41.25.78.35,1.19M7.9,13.52c-.29-.8.11-1.64.28-2.42-.11.79-.49,1.61-.25,2.41h-.01s.09-.03.12-.08c.68-.96.78-2.1.19-2.86,0,0-.62.78-.71,1.62-.06.59.15,1.06.28,1.28.02.04.06.05.09.05M13.11,15.02h-.26v.36h.26v-.36ZM11.49,15.38h.26v-.36h-.26v.36ZM12,15.51c.02.07-.02.1-.08.09-.1.01-.16.11-.28.09-.12.01-.18-.08-.28-.09-.06,0-.14,0-.12-.09l.15-.35c0-.08-.02-.25.09-.25h.28c.12,0,.09.17.09.25l.15.35ZM12.6,15.51l.15-.35c0-.08-.02-.25.09-.25h.28c.12,0,.09.17.09.25l.15.35s0,.09-.05.09c-.12-.01-.19.11-.32.09-.12.01-.18-.08-.28-.09-.07,0-.14,0-.12-.09M13.26,14.83h-.54l.27-.2.27.2ZM13,14.43l.39.39h-.11l-.29-.26-.29.26h-.08l.39-.39ZM11.89,14.83h-.54l-.62.8-.9.68h.43s3.97.01,3.97.01l1.59,1.55h-.12v-.02h.07l-1.53-1.44h-3.95s-.36-.07-.36-.07l.34.23h3.97s1.43,1.28,1.43,1.28v.1l.19-.03.15-.02-1.58-1.56-.39-.49-1.08-3.21-1.3,1.81.37.37h-.1l-.29-.26-.38.34.38-.28.27.2ZM7.44,15.39c.63-.43.83-1.23,1.21-1.85-.33.65-.53,1.47-1.19,1.87.02.02.06.03.09.02.22-.08.64-.29.93-.75.42-.65.43-1.54.43-1.54,0,0-.67.15-1.08.8-.29.45-.38,1.03-.41,1.33,0,.06,0,.1.04.13h0ZM8.26,25.9c-.87-.33-1.13-1.34-1.57-2.06.5.68.77,1.65,1.59,2.03v.02s.04-.11.03-.18c-.05-.38-.18-1.1-.57-1.59-.55-.71-1.4-.71-1.4-.71,0,0,.04,1.15.59,1.86.39.5.92.65,1.21.69.05,0,.09-.01.12-.05M10.29,29.02c-.83-.15-1.25-.98-1.77-1.55.57.53.98,1.32,1.78,1.52v.02s.03-.1.01-.16c-.1-.32-.32-.92-.76-1.29-.62-.53-1.42-.42-1.42-.42,0,0,.2.98.81,1.51.43.38.96.43,1.23.43.04,0,.08-.02.11-.06M12.1,30.48c-.75-.38-1.6-.17-1.6-.17,0,0,.36.83,1.1,1.22.52.27,1.1.25,1.39.21.34-.09-.38-.09-.48-.17-.6-.19-1.03-.68-1.55-1.01.37.18.67.48,1.02.69.33.24.76.33,1.13.42.02-.04.02-.09,0-.14-.15-.27-.48-.76-1.01-1.03M14.21,31.96s.08,0,.11-.04h-.01c-.19-.78-.81-1.26-1.28-1.86.53.56,1.15,1.05,1.3,1.85.02-.03.03-.08.02-.13-.1-1.09-.7-1.96-1.61-2.12.02.65.32,2,1.47,2.3M6.74,21.89s.08.03.12.01c-.13-.15-.24-.32-.33-.52-.3-.63-.26-1.38-.4-2.05.22.85.17,1.84.75,2.55h0s.08-.06.09-.13c.28-1.26-.08-2.44-1-2.97-.22.76-.35,2.31.78,3.11M11.15,8.66c.79-.18,1.29-.91,1.9-1.38-.46.4-.83.95-1.38,1.23-.09.1-.7.18-.42.24,1.2.07,1.99-1.17,2.22-1.77,0,0-.71-.12-1.37.37-.46.34-.78.89-.92,1.19-.03.04-.02.19-.02.14M7.49,18.39c-.12.37-.31.72-.59.98.03.02.07.02.1,0,.22-.13.61-.43.83-.96.31-.76.16-1.7.16-1.7-.85.38-1.29,1.4-1.17,2.51,0,.06.03.11.06.13.21-.28.45-.62.55-1,.13-.38.19-.81.35-1.18-.13.39-.18.82-.31,1.21M6.77,17.25s.06.06.1.05c-.09-.18-.16-.38-.2-.6-.15-.67,0-1.35,0-2.03.04.87-.15,1.79.22,2.61h-.01s.08-.03.1-.09c.51-1.15.26-2.38-.36-3.09-.38.75-.63,2.1.14,3.14M17.62,20.36v.44h.02c0-.48.07-.44.07-.44,0-.09-.08-.17-.08,0M23.79,20.2c0,.11-.12.11-.12,0s-.15.13-.15.13h.42s-.15-.23-.15-.13M22.92,21h.22s-.22-.01-.22-.01h0ZM23.62,21h.22v-.48h-.22v.48ZM22.9,20.31c.06,0,.06-.13.11-.13s.06.13.11.13.08-.16.08-.16h-.38s.02.16.07.16M22.41,21h.22v-.48h-.22v.48ZM22.58,20.2c0,.11-.12.11-.12,0s-.15.13-.15.13h.42s-.15-.23-.15-.13M23.2,20.11h-.37v.02h.37v-.02ZM26.02,20.07s.08,0,.08.08h.08c0-.07-.04-.11-.16-.08M24.24,21h.22v-.48h-.22v.48ZM21.89,20.31l.37-.03h-.73l.37.03ZM26.09,20.37s.07-.04.07.44h.02v-.44c0-.16-.08-.09-.08,0M25.46,21h.22v-.48h-.22v.48ZM25.02,20.2c0,.11-.12.11-.12,0s-.15.13-.15.13h.42s-.15-.23-.15-.13M24.41,20.2c0,.11-.12.11-.12,0s-.15.13-.15.13h.42s-.15-.23-.15-.13M24.85,21h.22v-.48h-.22v.48ZM25.63,20.2c0,.11-.12.11-.12,0s-.15.13-.15.13h.42s-.15-.23-.15-.13M18.27,20.2c0,.1-.12.11-.12,0,0-.1-.15.13-.15.13h.42s-.15-.23-.15-.13M19.55,20.52h-.22v.48h.22v-.48ZM18.88,20.2c0,.1-.12.11-.12,0,0-.1-.15.13-.15.13h.42s-.15-.23-.15-.13M21.32,20.2c0,.1-.12.11-.12,0,0-.1-.15.13-.15.13h.42s-.15-.23-.15-.13M18.32,20.52h-.22v.48h.22v-.48ZM16.96,19.87s-.02,0-.03,0c.07,0,.12.06.14.12h.05c0-.07-.07-.13-.16-.13M17.61,20.15h.08c0-.09.08-.08.08-.08-.12-.03-.16.01-.16.08M18.94,20.52h-.22v.48h.22v-.48ZM20.16,20.52h-.22v.48h.22v-.48ZM21.38,20.52h-.22v.48h.22v-.48ZM20.65,21h.22s-.22-.01-.22-.01h0ZM20.66,20.31c.05,0,.06-.13.11-.13s.05.13.11.13c.05,0,.07-.16.07-.16h-.38s.03.16.08.16M20.95,20.11h-.37v.02h.37v-.02ZM19.5,20.2c0,.1-.12.11-.12,0,0-.1-.15.13-.15.13h.42s-.15-.23-.15-.13M20.11,20.2c0,.1-.12.11-.12,0,0-.1-.15.13-.15.13h.42s-.15-.23-.15-.13M25.91,19.72s0-.28.01-.44c0-.16-.06-.09-.06,0,0,0,.04-.04.04.44M30.76,18.85h.21v-.55h-.21v.55ZM30.97,17.7h-.21v.55h.21v-.55ZM30.72,17.7h-.21v.55h.21v-.55ZM27.65,18.94s.03,0,.03-.02h-.25v.02h.03v.13h.08v-.13h.03v.13h.08v-.13ZM30.51,18.85h.21v-.55h-.21v.55ZM27.45,19.22h.08v-.13h-.08v.13ZM27.57,19.22h.08v-.13h-.08v.13ZM32.21,18.85h.21v-.55h-.21v.55ZM11.32,17.7h-.21v.55h.21v-.55ZM11.12,18.85h.21v-.55h-.21v.55ZM11.37,18.85h.21v-.55h-.21v.55ZM32.42,17.7h-.21v.55h.21v-.55ZM32.46,18.85h.21v-.55h-.21v.55ZM26.65,19.22h.08v-.13h-.08v.13ZM32.67,17.7h-.21v.55h.21v-.55ZM17.67,19.14c0,.16-.01.47.01.44,0-.48.04-.44.04-.44,0-.09-.06-.17-.06,0M17.86,19.28c0,.16-.01.46.01.44,0-.48.04-.44.04-.44,0-.09-.06-.17-.06,0M16.52,18.15c-.07,0-.11.06-.18.05-.07,0-.1-.05-.16-.05-.04,0-.08,0-.07-.05l.08-.2v-.08c0-.1.14-.06.21-.06.03,0,.05.03.05.06v.08l.08.2s0,.05-.03.05M16.97,17.9v-.08c0-.1.13-.06.21-.06.07,0,.05.1.05.14l.08.2s-.02.06-.05.05c-.06,0-.09.06-.16.05-.07,0-.1-.05-.16-.05-.04,0-.08,0-.07-.05l.09-.2ZM17.26,17.71h-.31l.16-.11.15.11ZM17.12,17.49l.22.23h-.06l-.17-.15-.17.15h-.05l.22-.23ZM20.81,19.3c.05,0,.1.04.1.08h-.19s.04-.08.09-.08M17.56,19.71l.28.27h8.11l.28-.27h1.46l-.08.05h-1.39l-.27.24-2.69.03.03-.04h-.53l.03.05h-.89s-.89,0-.89,0l.03-.05h-.53l.03.04-2.69-.03-.27-.24h-1.39l-.08-.05h1.46ZM21.97,19.92s-.11,0-.15,0h.15ZM22.81,20.02h.42v.02s-.41,0-.41,0v-.02ZM20.56,20.02h.42v.02s-.41,0-.41,0v-.02ZM26.95,20.23v-.03h-.26v.22l-.29.21v-.51c0-.11-.08-.12-.08.07,0,.12.01.59.01.59.07-.05.19-.15.26-.19v.16l-.55.38h-.02s-.61,0-.61,0v-.73h.37l.02-.05h-.42l.02.05v.73h-.6v-.73h.37l.02-.05h-.42l.02.05v.73h-.61v-.73h.37l.02-.05h-.42l.02.05v.73h-.6v-.73h.37l.02-.05h-.42l.02.05v.73h-.36v-.04h-.33v.04h-.51v-.73h.37l.02-.05h-.42l.02.05v.73h-.88v-.73l.02-.05h-.42l.02.05h.37v.73s-.5,0-.5,0v-.04h-.33v.04h-.36v-.73l.02-.05h-.42l.02.05h.36v.73s-.6,0-.6,0v-.73l.02-.05h-.42l.02.05h.37v.73s-.6,0-.6,0v-.73l.02-.05h-.42l.02.05h.36v.73s-.6,0-.6,0v-.73l.02-.05h-.42l.02.05h.37v.73s-.6,0-.6,0h-.02s-.55-.38-.55-.38v-.16c.06.04.2.15.26.19,0,0,.01-.47.01-.59,0-.19-.08-.18-.08-.07v.51l-.29-.21v-.22h-.26v.03l-.56-.4h1.29s.26.23.26.23h2.73l.03.04h.01v-.04s.38,0,.38,0v.04s0,0,0,0l.03-.04h1.8l.03.04h.01v-.04s.38,0,.38,0v.04s0,0,0,0l.03-.04s2.73,0,2.73,0l.26-.23h1.29l-.56.4ZM22.88,19.38c0-.11.19-.11.19,0h-.19ZM26.67,17.49l.22.23h-.05l-.17-.15-.17.15h-.06l.22-.23ZM26.52,17.71l.15-.11.15.11h-.31ZM26.87,18.15s-.07,0-.09.02c-.06.05-.17.05-.22,0-.03-.04-.12,0-.1-.07l.08-.2v-.08c0-.1.13-.06.21-.06.03,0,.05.03.05.06v.08l.09.2s0,.05-.03.05M27.33,17.9v-.08c0-.1.13-.06.21-.06.07,0,.05.1.05.14l.09.2c.02.05-.03.06-.07.05-.06,0-.09.06-.16.05-.08,0-.11-.06-.18-.05-.02,0-.04-.03-.03-.05l.08-.2ZM16.33,17.56l-.22.2.22-.16.16.11h-.31l-.36.45-.17.1v.16s1.89,0,1.89,0l.76.85-.77-.8-1.88-.04v1.46l-1.44-.84h-.79v-1.32s.07-.08.07-.08v-.07l.04-.11h-.95l.04.11h.77v1.47h-1.66v-1.32s.07-.08.07-.08v-.07l.04-.11h-.95l.04.11h.77v1.47h-1.71l-.08.09h4.33c.83.5,2.7,1.65,3.54,2.16h8.25c.84-.51,2.71-1.65,3.54-2.16,0,0,4.33,0,4.34,0l-.08-.09h-1.71v-1.47h.77l.04-.11h-.95l.04.11v.07l.07.08v1.32s-1.66,0-1.66,0v-1.47h.77l.04-.11h-.95l.04.11v.07s.07.08.07.08v1.32s-.79,0-.79,0l-1.44.84v-1.46l-1.88.04-.78.8.76-.85s1.89,0,1.89,0v-.16l-.17-.1-.36-.45h-.31l.15-.11.22.16-.22-.2-.17.15h-.06l.26-.23-.54-.99-.7,1.65-.58.83-.35.07h-2.15c-.12,0-.12.19-.14.21-.09.07-.13-.03-.21-.03h-.25l.07.27c.02.09.1.12.17.11.02-.06.03-.18.11-.17h.13v.25s2.62,0,2.62,0l-.09-.31.68-.77h1.8l.05-.04v.83s-.38.27-.38.27h-1.53l-.28.27h-3.78s.02-.04.02-.07h-.07s-.42,0-.42,0h-.07s.01.05.02.07h-3.78l-.28-.27h-1.53l-.38-.27v-.83s.05.04.05.04h1.8l.68.77-.09.31h2.62s0-.26,0-.26c.07,0,.19-.03.22.07l.03.1c.08,0,.15-.02.17-.11l.06-.27h-.25s-.05.01-.07.03c-.03.03-.1.03-.14,0-.02-.02-.02-.2-.14-.2h-2.15s-.35-.07-.35-.07l-.58-.83-.7-1.65-.54.99.26.23h-.06l-.17-.15ZM26.86,19.87c-.09-.02-.19.04-.19.12h.05c.02-.07.08-.12.14-.12M16.25,18.03h.15v-.21h-.15v.21ZM26.95,20.14l.04-.1h-.32l.04.1h.25ZM17.13,18.94s.03,0,.03-.02h-.25v.02h.03v.13h.08v-.13h.03v.13h.08v-.13ZM17.18,17.82h-.15v.21h.15v-.21ZM26.1,19.58s0-.28.01-.44c0-.16-.06-.09-.06,0,0,0,.04-.04.04.44M11.58,17.7h-.21v.55h.21v-.55ZM26.77,19.22h.08v-.13h-.08v.13ZM26.85,18.94s.03,0,.02-.02h-.25v.02h.03v.13h.08v-.13h.03v.13h.08v-.13ZM16.94,19.22h.08v-.13h-.08v.13ZM16.14,19.22h.08v-.13h-.08v.13ZM17.05,19.22h.08v-.13h-.08v.13ZM16.25,19.22h.08v-.13h-.08v.13ZM16.34,18.94s.03,0,.03-.02h-.25v.02h.03v.13h.08v-.13h.03v.13h.08v-.13ZM17.08,22.42l.21.06v-.75l-.21-.09v.78ZM25.79,23.31h-.22v.56h.22v-.56ZM25.47,23.96c.11-.01.09.15.21.14.12,0,.09-.16.2-.14v-.02h-.41v.02ZM25.85,23.27h-.34v.02h.34v-.02ZM29.69,23.42s-.15,0-.2,0v.02s.15,0,.2,0v-.02ZM25.16,22.03h-.22v.56h.22v-.56ZM24.85,22.69c.11-.01.09.15.21.14.12,0,.09-.16.2-.14v-.02h-.41v.02ZM25.47,22.69c.11-.01.09.15.21.14.12,0,.09-.16.2-.14v-.02h-.41v.02ZM23.47,24.22v-.28h-.08v-2.23l.02-.18h2.54s.08.04.08.09v2.61s-2.56,0-2.56,0ZM23.37,23.94h-.05v.28h-.6v-.94c0-.26-.4-.26-.4,0v.79l.04.04v.11h-.3v-.11l.04-.04v-.78c0-.11-.09-.2-.2-.2s-.2.09-.2.2v.79l.04.04v.11h-.3v-.11l.04-.04v-.78c0-.26-.4-.26-.41,0v.94h-.59v-.28h-.05v-2.24l-.02-.18h2.99l-.02.18v2.24ZM20.4,23.94h-.08v.28h-2.57v-2.61s.05-.09.09-.09h2.54l.02.18v2.23ZM29.1,24.6c.15.01.43.06.59.05v-.02h-.12s-.19-.02-.19-.02v-1.82l-.27.03v1.76l-.13-.02v-1.72l-.24.03v1.67l-.13-.02v-1.63l-.25.03v1.57l-.22-.03v-1.52l-.26.03v1.45l-.13-.02v-1.42l-.23.03v1.37h-.13v-1.35l-.21.03v1.28h-.13v-1.27l-.2.03v1.2h-.13v-1.19l-.22.03v1.12h-.13v-1.1l-.14.02v1.05s-.15-.02-.15-.02v-2.71s0-.07.03-.09c.83-.45,2.64-1.45,3.46-1.89h4.06l.27-.33h-4.32s-1.48.89-1.48.89l-2.06,1.24s-8.26,0-8.26,0c-.85-.51-2.7-1.62-3.54-2.13h-4.32s.27.33.27.33h4.06c.82.44,2.62,1.44,3.46,1.89.03.02.05.05.04.09v2.71s-.17.02-.17.02v-1.05l-.14-.02v1.08h-.13s0-1.1,0-1.1l-.22-.03v1.17h-.13s0-1.19,0-1.19l-.2-.03v1.25h-.13s0-1.27,0-1.27l-.21-.03v1.33h-.13s0-1.35,0-1.35l-.23-.03v1.42l-.13.02v-1.45l-.26-.03v1.52l-.22.03v-1.57l-.25-.03v1.63l-.13.02v-1.67l-.24-.03v1.72l-.13.02v-1.76l-.27-.03v1.82l-.19.02h-.12v.02h.12c.17-.02,3.21-.38,3.49-.42h8.36l3.02.36ZM23.91,22.03h-.22v.56h.22v-.56ZM25.67,21.68l-.24.12h.14s-.1,0-.1,0l.2-.09.2.09h-.1s.14,0,.14,0c0,0-.25-.13-.25-.12M25.85,21.99h-.34v.02h.34v-.02ZM25.67,22.96l-.24.12h.14s-.1,0-.1,0l.2-.09.2.09h-.1s.14,0,.14,0c0,0-.25-.13-.25-.12M25.79,22.03h-.22v.56h.22v-.56ZM25.22,21.99h-.34v.02h.34v-.02ZM24.85,23.96c.11-.01.09.15.21.14.12,0,.09-.16.2-.14v-.02h-.41v.02ZM24.54,23.31h-.22v.56h.22v-.56ZM24.6,23.27h-.34v.02h.34v-.02ZM24.42,22.96l-.24.12h.14s-.1,0-.1,0l.2-.09.2.09h-.1s.14,0,.14,0c0,0-.25-.13-.25-.12M24.22,23.96c.11-.01.09.15.21.14.12,0,.09-.16.2-.14v-.02h-.41v.02ZM23.6,22.69c.11-.01.09.15.21.14.12,0,.09-.16.2-.14v-.02h-.41v.02ZM23.8,21.68l-.24.12h.14s-.1,0-.1,0l.2-.09.2.09h-.1s.14,0,.14,0c0,0-.25-.13-.25-.12M25.16,23.31h-.22v.56h.22v-.56ZM25.22,23.27h-.34v.02h.34v-.02ZM25.05,22.96l-.24.12h.14s-.1,0-.1,0l.2-.09.2.09h-.1s.14,0,.14,0c0,0-.25-.13-.25-.12M24.6,21.99h-.34v.02h.34v-.02ZM24.42,21.68l-.24.12h.14s-.1,0-.1,0l.2-.09.2.09h-.1s.14,0,.14,0c0,0-.25-.13-.25-.12M24.54,22.03h-.22v.56h.22v-.56ZM24.22,22.69c.11-.01.09.15.21.14.12,0,.09-.16.2-.14v-.02h-.41v.02ZM14.1,22.68h.2s0,0,0,0c-.05-.01-.15-.01-.2-.01v.02ZM14.1,22.52h.2s0,0,0,0c-.05-.01-.15-.01-.2-.01v.02ZM14.1,22.83h.2s0,0,0,0c-.05,0-.15,0-.2,0v.02ZM14.1,21.92h.12l.08.02v-.02s-.07-.03-.07-.03h-.12v.02ZM14.1,22.37c.07,0,.13,0,.2.02v-.02s-.08-.02-.08-.02h-.12v.02ZM14.1,22.22c.08,0,.12,0,.2.02v-.02s-.08-.02-.08-.02h-.12v.02ZM14.1,22.07c.07,0,.13,0,.2.02v-.02s-.08-.02-.08-.02h-.12v.02ZM14.1,23.13h.2s0-.01,0-.01h-.08s-.12,0-.12,0v.02ZM14.1,24.19s.15,0,.2,0v-.02s-.16,0-.2,0v.02ZM14.1,22.98h.2s0,0,0,0c-.05,0-.15,0-.2,0v.02ZM14.1,23.28h.2s0-.01,0-.01h-.08s-.12,0-.12,0v.02ZM14.1,24.5s.16,0,.2,0v-.02s-.16.01-.2,0v.02ZM14.3,24.04v-.02s-.16,0-.2,0v.02s.15,0,.2,0M14.1,24.35s.16,0,.2,0v-.02s-.16,0-.2,0v.02ZM14.1,21.77h.12l.08.02v-.02s-.08-.02-.08-.02h-.12v.02ZM14.1,20.4h.12l.08.04v-.02s-.07-.04-.07-.04h-.13s0,.02,0,.02ZM14.1,20.1h.12l.08.04h0s-.08-.06-.08-.06h-.13s0,.02,0,.02ZM14.1,20.25h.12l.08.04v-.02s-.07-.04-.07-.04h-.13s0,.02,0,.02ZM14.1,19.94h.12l.08.04v-.02s-.07-.04-.07-.04h-.13s0,.02,0,.02ZM14.1,19.79h.12l.08.04v-.02s-.07-.04-.07-.04h-.13v.02ZM14.31,19.67l-.08-.04h-.13s0,.02,0,.02h.12l.08.04v-.02ZM14.1,20.55h.12l.08.04v-.02s-.07-.04-.07-.04h-.13v.02ZM14.1,21.31h.12l.08.03v-.02s-.07-.03-.07-.03h-.12v.02ZM14.1,21.46h.12l.08.03v-.02s-.07-.03-.07-.03h-.12v.02ZM14.1,20.7h.12l.08.04v-.02s-.07-.04-.07-.04h-.13v.02ZM14.1,21.61h.12l.08.03v-.02s-.07-.03-.07-.03h-.12s0,.02,0,.02ZM14.1,20.85h.12l.08.03v-.02s-.07-.03-.07-.03h-.13s0,.02,0,.02ZM14.1,21.01h.12l.08.03v-.02s-.07-.03-.07-.03h-.12s0,.02,0,.02ZM14.1,21.16h.12l.08.03v-.02s-.07-.03-.07-.03h-.12v.02ZM20.15,23.27h-.34v.02h.34v-.02ZM18.28,21.99h-.34v.02h.34v-.02ZM18.22,22.03h-.22v.56h.22v-.56ZM18.11,22.96l-.25.13h.14s-.09,0-.1,0l.2-.09.2.09h-.1s.14,0,.14,0c0,0-.24-.12-.24-.13M30.22,31.04c.13-.12.22-.28.14-.47-.03-.07-.07,0-.12-.03,0-.09.05-.43,0-.57-.1-.49-.3-.08-.39.14-.03.06-.05.04-.06-.01-.15-.35-.25.45-.29.5-.02.02-.04-.07-.09-.09-.08.02-.26.04-.33.08-.13.05-.17.25-.13.35.03.06.21.18,0,.14-.2-.05-.24.18-.17.29.02.05.15.11.15.16,0,.03-.04.03-.07.06-.04.03-.03.15-.04.2-.02.09-.08.12-.07.2.01.14.1.11.14,0,.11-.22.25-.42.4-.61l.1-.02c.18-.2.34-.43.43-.68,0,.02-.01.05-.02.07-.09.24-.24.47-.41.67l-.1.02c-.15.21-.29.43-.39.66.11-.04.21-.15.31-.22.06-.03.11-.09.18-.09.1-.03.19-.08.12-.13-.02,0-.03-.01-.03-.04.05-.02.18.03.25.03.13,0,.27-.03.31-.17.02-.07,0-.11-.04-.13-.03-.03-.07-.04-.08-.08-.01-.03.14-.09.26-.2M17.9,23.96c.11-.01.09.15.21.14.12,0,.09-.16.21-.14v-.02h-.41v.02ZM18.28,23.27h-.34v.02h.34v-.02ZM18.22,23.31h-.22v.56h.22v-.56ZM18.85,23.31h-.22v.56h.22v-.56ZM18.74,22.96l-.25.13h.14s-.09,0-.1,0l.2-.09.2.09h-.1s.14,0,.14,0c0,0-.24-.12-.24-.13M17.9,22.69c.11-.01.09.15.21.14.12,0,.09-.16.21-.14v-.02h-.41v.02ZM18.9,21.99h-.34v.02h.34v-.02ZM18.11,21.68l-.25.13h.14s-.09,0-.1,0l.2-.09.2.09h-.1s.14,0,.14,0c0,0-.24-.12-.24-.13M18.53,23.96c.11-.01.09.15.21.14.12,0,.09-.16.21-.14v-.02h-.41v.02ZM18.9,23.27h-.34v.02h.34v-.02ZM34.89,10.98c.03.06.12.22.1.25-.04.03-.15-.1-.16.04-.01.25.25.44.35.63,0,.05-.05-.06-.07,0,.04.14.17.6.24.7,0-.52-.09-1.22-.1-1.66.02.45.11.9.12,1.36.01.11,0,.23.03.32,0,0,.02.03.05.02.07-.06.03-.13.04-.22,0-.04.05-.13.03-.16-.01-.04-.03-.04-.03-.07,0-.03.1-.01.14-.04.07-.05.13-.21,0-.27-.12-.06,0-.05.05-.08.01-.01.04-.04.06-.09.05-.11-.01-.28-.12-.34-.03-.01-.05,0-.06-.04-.01-.06.08-.27.06-.51-.02-.14-.07-.26-.17-.22-.03.02-.06,0-.08-.08-.02-.08-.04-.23-.08-.34-.11-.41-.37-.54-.42.03-.01.11,0,.21-.02.21-.05-.01-.08-.11-.12-.08-.15.12.01.45.1.64M35.66,14.59c-.08-.1-.15-.42-.3-.52-.06-.04-.12-.03-.18.03-.05.05,0,.11-.01.17,0,.02-.07-.01-.16-.01-.15,0-.36.03-.39.22-.02.17.15.31.28.38.03.02.04.04.02.06-.07.05-.11.17.12.24-.14.02-.17.17-.11.21.03.02.04.01.07.01.08,0,.25-.05.29-.02,0,.02-.05.06-.05.09-.02.07.02.17.1.18.04,0,.08,0,.1,0,.03-.01.1-.09.12-.08.02,0-.07.14-.05.2.02.08.11.07.16.05.05-.02.13-.13.15-.12.02.01,0,.04.01.08,0,.04.08.06.11.08.03.02.05.09.06.1.01.01.05.04.09.02.04-.02.04-.06.04-.06-.08-.21-.25-.47-.39-.66-.07-.08-.4-.5-.4-.51,0,0,.23.27.26.31.08.1.19.21.26.32.1.14.22.31.31.46.01-.07,0-.15-.02-.24-.03-.15-.06-.31-.11-.46-.01-.04-.02-.06-.05-.05-.02.02,0,.08-.04.07-.02-.1.02-.21-.02-.36-.01-.09-.02-.19-.04-.27-.03-.1-.14-.18-.18-.05-.02.05-.03.1-.05.12M35.78,23.44c.08-.19.24-.5.03-.64-.06-.03-.08.07-.13.09-.02,0-.02-.1-.06-.2-.06-.19-.18-.41-.33-.33-.13.09-.14.33-.16.47,0,.08,0,.23-.08.17-.09-.05-.15.01-.15.16-.01.21.09.44.07.5-.02.05-.09-.04-.17.07-.06.08-.02.24.02.3.02.04.1.07.11.1,0,.03-.13,0-.16.06-.04.07,0,.18.04.23.06.09.22.08.1.18-.02.03,0,.14-.01.18,0,.04-.04.11-.04.13,0,.02,0,.09.02.12.04.04.07,0,.08-.02.2-.51.39-1.08.39-1.64,0,.09,0,.19,0,.29-.04.47-.17.94-.33,1.38.1-.03.19-.21.27-.3.04-.06.29-.4.16-.35-.02.01-.04.02-.04,0,.1-.12.32-.25.41-.41.04-.07.07-.15.06-.22-.01-.15-.15-.02-.19-.05-.01-.03.09-.19.11-.25M36.54,18.78c.05-.15.04-.6,0-.75-.05-.03-.04.08-.07.06,0-.15.1-.4.08-.57,0-.08-.03-.14-.07-.18-.08-.07-.11.12-.16.14-.06-.14-.06-.48-.18-.61-.04-.05-.1-.08-.17-.04-.06.03-.02.11-.05.16,0,.02-.06-.04-.14-.07-.32-.16-.53.06-.35.38.05.1.11.18.13.21.03.05.02.09-.02.1-.04.01-.13.1-.03.24.06.1.25.16.3.23,0,.06-.09.08-.08.19,0,.13.14.14.17.14s.1-.06.12-.04c.02.01-.09.11-.08.17,0,.08.09.09.14.09.09,0,.2-.15.16.01,0,.04.07.08.09.11.02.03.03.1.04.11.03.05.11.08.12,0-.01-.17-.1-.35-.16-.52-.1-.26-.22-.52-.4-.74,0,0-.02-.02-.02-.03,0,0,.02.01.03.02.3.34.47.78.6,1.2M36.68,16.31c-.1.25.11.58.15.8-.03.04-.03-.09-.07-.03-.02.11.01.42.01.56,0,.13.01.23.03.24.16-.53.25-1.09.43-1.61.02-.06-.01.04-.02.06-.14.51-.23,1.07-.36,1.58,0,.03,0,.07.04.08.1-.02.07-.11.11-.19.02-.03.09-.1.08-.14-.04-.17.05-.05.15-.04.05,0,.13-.04.14-.15,0-.09-.11-.17-.1-.2.01-.02.09.03.12.02.03,0,.16-.07.14-.25,0-.06-.02-.12-.06-.15-.1-.07-.02-.11.05-.22.13-.14.24-.55.05-.58-.03,0-.06-.03-.05-.12.03-.14.09-.66-.04-.81-.13-.19-.27.03-.36.21-.05.1-.08.2-.09.19-.04-.03-.03-.16-.1-.15-.22.08-.12.48-.12.67,0,.07.04.28.02.3-.05,0-.12-.18-.18-.06M35.93,14.03c.06.11.14.24.15.36-.02.05-.04-.11-.07-.01,0,.19.01.62.07.76.11-.42.19-.89.24-1.31,0,.22-.03.44-.07.66-.04.22-.09.46-.13.67,0,.03,0,.07.04.07.09-.03.07-.12.1-.2.02-.03.08-.11.07-.15-.05-.16.04-.05.14-.07.05-.02.12-.06.12-.16,0-.08-.11-.15-.09-.17.01-.02.08.01.11,0,.1-.04.17-.19.12-.3-.01-.08-.09-.12-.11-.18,0-.05.03-.11.07-.21.05-.08.03-.24.13-.28,0-.02,0-.04,0-.06,0-.06-.05-.13-.1-.12-.03.02-.06-.03-.05-.13,0-.25.06-.6-.09-.83-.13-.16-.25.08-.33.27-.04.1-.06.21-.07.2-.04-.04-.05-.15-.1-.13-.07.02-.1.1-.11.19-.04.16.1.76.07.8-.02,0-.05-.04-.09-.07-.03-.03-.06-.04-.09.03-.04.12-.01.26.03.38M36.35,21.13c.1-.16.23-.38.17-.57-.05-.12-.15.05-.2.04-.03,0,.04-.22.06-.43.01-.15.04-.41-.15-.44-.06,0-.06.1-.1.13-.01.01-.05-.08-.11-.16-.1-.15-.27-.3-.39-.17-.12.14-.03.49-.01.61.02.15-.07.04-.14.12-.09.1.03.34.09.44.05.1.14.16.02.19-.03.01-.06.03-.08.1-.04.13.07.23.1.25.03.02.11.01.12.04,0,.01-.02.03-.06.04-.14.06-.07.21.02.26.05.03.16.01.17.04.01.03-.02.04-.03.07-.01.04.03.13.04.17,0,.04,0,.12,0,.14,0,.04.06.15.11.08.07-.36.05-.78.03-1.16-.02-.16-.04-.33-.09-.49.14.4.15.85.14,1.28,0,.11,0,.23-.01.34.1-.12.25-.58.27-.76-.03-.06-.06.06-.08.01,0-.03.08-.13.11-.18M33.32,21.3l-.22.04v-.43l.22-.05v.44ZM33.07,20.96l-.39.1v-.04l.39-.1v.04ZM33.07,21.35l-.39.08v-.35l.39-.1v.37ZM32.62,21.43l-.19.04v-.39l.19-.05v.4ZM32.4,21.13l-.38.09v-.03l.38-.1v.04ZM32.4,21.48l-.38.07v-.32l.38-.09v.33ZM31.96,21.56l-.16.03v-.35l.16-.04v.36ZM31.78,21.28l-.32.08v-.03l.32-.08v.03ZM31.78,21.6l-.32.06v-.29l.32-.08v.31ZM31.42,21.67l-.16.03v-.32l.16-.04v.33ZM31.23,21.41l-.3.07v-.03l.3-.07v.03ZM31.23,21.7l-.3.06v-.26l.3-.07v.28ZM30.9,21.77l-.12.02v-.3l.12-.03v.3ZM30.75,21.53l-.28.07v-.02l.28-.07v.03ZM30.75,21.8l-.28.06v-.24l.28-.07v.26ZM30.43,21.86h-.07s0-.26,0-.26l.07-.02v.28ZM30.34,21.63l-.23.06v-.02l.23-.06v.02ZM30.34,21.88l-.23.05v-.22l.23-.06v.23ZM33.86,21.19l-.46.09v-.39l.46-.11h0s-.46.1-.46.1v-.04l.45-.11v-.03c-.29.07-.88.22-1.16.29v-.15h-.21v.21h-.04s0-.21,0-.21h-.21v.27l-.13.03v-.38h.08v-.02c0-.38.54-.38.55,0v.02h.1v-.05h-.06c0-.08-.03-.15-.08-.2h.33l-.57-.4-.57.4h.33c-.05.05-.08.12-.08.2h-.04v-.13h-.03v.56l-1.16.29h-.15v.04h-.04s0-.04,0-.04h-.21v.1l-.08.02h0s-.05.01-.05.01v-.81h.08v-.02c0-.38.54-.38.55,0v.02h.1v-.05h-.06c0-.08-.03-.15-.08-.2h.33l-.56-.4-.57.4h.33c-.05.05-.08.12-.08.2h-.04v-.13h-.03v1l-.27.07v.29l-.26.05v.06s0,2.61,0,2.61h.02v-2.62l4.03-.78v-.06ZM32.77,24.98c.01-.23.02-1.82.01-2.08-.02-1.06-.6-.91-.61.05v1.62c.02.09.02.26.02.35.23.03.35.04.58.07M31.13,24.79c.01-.19.01-1.54.01-1.77-.01-.9-.53-.77-.53.04v1.37c.01.08.02.22.01.3.2.02.31.04.51.06M31.9,24.88c.01-.21.01-1.67.01-1.92-.01-.98-.57-.83-.58.04v1.49c.01.09.02.24.02.32.22.03.33.04.55.06M18.85,22.03h-.22v.56h.22v-.56ZM33.79,25.1c.01-.25.02-1.99.02-2.27,0-.47-.17-.83-.37-.8-.21.03-.37.42-.37.86v1.75c.02.1.03.28.02.38.28.03.43.05.71.08M34.28,12.12s0,.1,0,.15c0,.02-.07,0-.15,0-.4,0-.5.33-.13.52.06.03.14.07.07.12-.05.05-.07.15.03.19.12.06.32.02.34.05.01.04-.03.07-.04.1-.02.11.12.14.19.11.03-.01.09-.09.11-.08.01.03-.07.15-.04.18.03.07.11.05.16.03.05-.02.12-.12.14-.11.02,0,0,.03.01.07,0,.03.08.04.11.06.03.01.05.07.06.08.06.05.14,0,.11-.07-.08-.12-.18-.26-.27-.39-.16-.16-.33-.32-.55-.4,0,0,.02,0,.03,0,.32.11.57.37.76.64.03.03.05.07.07.1,0-.03,0-.1-.02-.2-.04-.14-.05-.31-.14-.42-.05,0-.02.08-.05.07-.03-.12,0-.36-.06-.49-.02-.06-.06-.1-.11-.11-.1-.02-.08.14-.12.17,0,0-.03-.03-.06-.08-.08-.15-.25-.48-.44-.29M34.59,26.51c.03-.08-.01-.32-.12-.24-.02.02-.05.04-.07.04-.02,0,0-.11,0-.23-.02-.22-.08-.49-.23-.46-.16.05-.2.29-.26.43-.02.07-.05.23-.11.14-.07-.1-.15-.01-.17.09-.05.14-.02.42-.05.53-.01.02-.03,0-.06-.01-.04-.02-.07-.02-.11.01-.1.08-.07.27-.05.32.01.05.08.11.07.14-.02.03-.12-.06-.16,0-.06.06-.04.18-.03.25.02.07.11.15.1.18,0,.03-.03.02-.06.04-.03.02-.04.14-.06.19-.01.04-.06.09-.08.12-.02.02-.05.19.04.17.08-.06.14-.19.21-.28.24-.38.48-.8.57-1.24-.07.46-.41,1.11-.72,1.56.14-.02.52-.35.6-.47.01-.08-.08,0-.07-.06.12-.08.36-.12.48-.26.07-.06.19-.29.05-.3-.04,0-.09,0-.11-.02,0-.05.39-.45.39-.63M18.74,21.68l-.25.13h.14s-.09,0-.1,0l.2-.09.2.09h-.1s.14,0,.14,0c0,0-.24-.12-.24-.13M20.89,23.3h-.11v-1.51s.03-.15.08-.11c.02.02.06.02.07-.01v-.04s-.17,0-.17,0v-.08h-.05v.08h-.19l.02.04s.05.03.07,0c.05-.04.07.08.07.11v1.52h-.17v.06h-.06v.05h.52v-.06h-.09v-.06ZM18.53,22.69c.11-.01.09.15.21.14.12,0,.09-.16.21-.14v-.02h-.41v.02ZM21.74,22.68h.3v-.29h-.3v.29ZM19.99,21.68l-.25.13h.14s-.09,0-.1,0l.2-.09.2.09h-.1s.14,0,.14,0c0,0-.24-.12-.24-.13M22.82,21.59l.04-.03h.12s-.12-.01-.12-.01c0,0-.05.03-.05.03h-.93s.93.01.93.01M20.96,21.59s.93,0,.93,0h0s-.93-.01-.93-.01c0,0-.05-.03-.05-.03h-.12s.12.01.12.01l.05.03ZM23.6,23.96c.11-.01.09.15.21.14.12,0,.09-.16.2-.14v-.02h-.41v.02ZM23.91,23.31h-.22v.56h.22v-.56ZM23.8,22.96l-.24.12h.14s-.1,0-.1,0l.2-.09.2.09h-.1s.14,0,.14,0c0,0-.25-.13-.25-.12M23.97,23.27h-.34v.02h.34v-.02ZM23.27,23.31h-.17v-1.52s.03-.15.07-.11c.04.05.08-.01.09-.05h-.19v-.08h-.05v.08h-.18s.04.09.08.05c.06-.04.08.06.08.11v1.51h-.11v.06h-.09v.06h.52v-.05h-.06v-.06ZM19.78,22.69c.11-.01.09.15.21.14.12,0,.09-.16.2-.14v-.02h-.41v.02ZM22.46,21.67c-.15,0-.27.15-.27.33v.89s0-.52,0-.52c.03-.46.56-.64.52.14.01,1.05.01-.42.01-.51,0-.18-.12-.33-.27-.33M21.9,21.67c-.15,0-.27.15-.27.33v.68h.04v.19h.03v-.21h-.06v-.49h.04l.07.19s.15,0,.15,0c0,0,.15,0,.15,0l.07-.19h.04v.49h-.06v.21h.03v-.19h.04v-.68c0-.18-.12-.32-.26-.33M21.32,21.67c-.15,0-.27.15-.27.33,0,.09,0,1.56.01.51-.04-.78.49-.61.52-.14v.52s.01-.89.01-.89c0-.18-.12-.33-.27-.33M19.36,22.96l-.25.13h.14s-.09,0-.1,0l.2-.09.2.09h-.1s.14,0,.14,0c0,0-.24-.12-.24-.13M19.53,21.99h-.34v.02h.34v-.02ZM19.47,23.31h-.22v.56h.22v-.56ZM19.47,22.03h-.22v.56h.22v-.56ZM19.53,23.27h-.34v.02h.34v-.02ZM23.97,21.99h-.34v.02h.34v-.02ZM19.15,23.96c.11-.01.09.15.21.14.12,0,.09-.16.21-.14v-.02h-.41v.02ZM20.15,21.99h-.34v.02h.34v-.02ZM19.15,22.69c.11-.01.09.15.21.14.12,0,.09-.16.21-.14v-.02h-.41v.02ZM19.99,22.96l-.25.13h.14s-.09,0-.1,0l.2-.09.2.09h-.1s.14,0,.14,0c0,0-.24-.12-.24-.13M20.09,22.03h-.22v.56h.22v-.56ZM20.09,23.31h-.22v.56h.22v-.56ZM19.36,21.68l-.25.13h.14s-.09,0-.1,0l.2-.09.2.09h-.1s.14,0,.14,0c0,0-.24-.12-.24-.13M14.1,23.44h.2s0-.01,0-.01h-.08s-.12,0-.12,0v.02ZM19.78,23.96c.11-.01.09.15.21.14.12,0,.09-.16.2-.14v-.02h-.41v.02ZM25.05,21.68l-.24.12h.14s-.1,0-.1,0l.2-.09.2.09h-.1s.14,0,.14,0c0,0-.25-.13-.25-.12M17.08,22.51s.04.03.05.07c.01.1.09.15.12.03,0-.04.03-.05.05-.04v-.02c-.08-.02-.13-.03-.21-.06v.02ZM17.28,21.69l-.06-.12-.06.05h.05s.03.06.03.06l.04.02ZM17.16,21.48l-.09.11h.08l.08-.08.1.2-.09-.24h-.08ZM17.17,22.98h.05s.03.06.03.06l.04.02-.06-.12-.06.05ZM17.25,22.84h-.08l-.09.11h.08l.08-.08.1.2-.09-.24ZM17.43,22.6s.03.15.07.15c.04.01.03-.13.07-.11v-.02c-.06-.01-.08-.02-.14-.04v.02ZM17.54,22.9h-.07l-.08.1h.07l.07-.07.09.17-.08-.2ZM17.57,21.82l-.05-.11-.06.04h.05s.02.05.02.05l.03.02ZM17.43,22.51l.14.04v-.71l-.14-.06v.73ZM17.47,23.02h.05s.02.05.02.05l.03.02-.05-.11-.05.04ZM16.48,22.87h.06s.03.07.03.07l.04.02-.06-.14-.07.06ZM17.47,21.64l-.08.1h.07l.07-.07.09.17-.08-.2h-.07ZM16.95,21.58l-.21-.09v.84l.21.06v-.8ZM16.58,21.14h-.09l-.1.13h.09l.09-.09.12.23-.1-.27ZM16.47,22.84l.09-.09.12.23-.1-.27h-.09l-.1.13h.09ZM16.82,22.93h.06s.03.06.03.06l.04.02-.06-.13-.07.05ZM29.48,21.77v.02s.08-.02.08-.02h.12v-.02h-.12s-.08.02-.08.02ZM16.81,22.9l.08-.08.11.21-.1-.25h-.08l-.1.12h.08ZM16.92,21.3h-.09l-.1.13h.09l.09-.09.12.23-.1-.27ZM16.9,21.41l-.07.06h.06s.03.06.03.06l.04.02-.06-.14ZM16.74,22.42s.04.03.05.07c.01.11.09.16.12.03,0-.04.02-.06.05-.05v-.02c-.09-.02-.13-.03-.21-.06v.03ZM29.57,21.61h.12v-.02h-.12l-.08.03v.02s.08-.03.08-.03ZM29.69,19.62h-.12l-.08.04v.02s.08-.04.08-.04h.12v-.02ZM12.82,21.39h.21v-.55h-.21v.55ZM13.16,24.74c0-.08,0-.22.01-.3v-1.37c0-.81-.52-.95-.53-.04,0,.03,0,1.61.01,1.58v.19c.2-.02.31-.03.51-.06M29.57,21.46h.12v-.02h-.12l-.08.03v.02s.08-.03.08-.03ZM11.21,28.67c.19.35.32.76.35,1.17.02-.03.04-.06.04-.11.08-1.11-.44-2.11-1.22-2.51-.09.7.07,2.02,1.06,2.63.04.03.08.02.11,0h-.01c-.07-.6-.33-1.15-.66-1.65-.1-.16-.2-.33-.28-.52.18.35.43.63.62.98M13.7,24.68c.02-.58.01-.99.01-1.57,0-.76-.4-.87-.41-.03v1.35c0,.08.01.21,0,.29.16-.02.24-.03.39-.04M10.7,25.02c0-.11,0-.28.02-.38v-1.75c0-1.03-.73-1.22-.75-.06,0,.3,0,2.02.02,2.27.28-.03.43-.05.71-.08M29.69,19.77h-.12l-.08.04v.02s.08-.04.08-.04h.12v-.02ZM13.28,20.75c0-.36-.45-.36-.45,0,0,0,.46,0,.45,0M13.27,20.83h-.21v.55h.21v-.55ZM11.55,20.75c0-.36-.45-.36-.45,0,0,0,.46,0,.45,0M11.59,24.71s.01-1.68.02-1.76c0-.41-.14-.76-.3-.79-.17-.03-.3.31-.3.74,0,.27,0,1.85.01,2.08.23-.03.35-.04.58-.07v-.21ZM13.67,21.68l-.23-.06v-.02l.23.06v.02ZM13.67,21.92l-.23-.05v-.23l.23.06v.22ZM13.42,21.87h-.07v-.29l.07.02v.27ZM13.31,21.59l-.28-.07v-.03l.28.07v.02ZM13.31,21.85l-.28-.06v-.26l.28.07v.24ZM13.01,21.79l-.12-.02v-.3l.12.03v.3ZM12.84,21.48l-.3-.07v-.03l.3.07v.03ZM12.84,21.76l-.3-.06v-.28l.3.07v.26ZM12.53,21.7l-.16-.03v-.33l.16.04v.32ZM12.32,21.35l-.32-.08v-.03l.32.08v.03ZM12.32,21.66l-.32-.06v-.31l.32.08v.29ZM11.98,21.59l-.16-.03v-.36l.16.04v.35ZM11.76,21.22l-.38-.09v-.04l.38.1v.03ZM11.76,21.55l-.38-.07v-.33l.38.09v.32ZM11.35,21.47l-.19-.04v-.4l.19.05v.39ZM11.09,21.06l-.39-.1v-.04l.39.1v.04ZM11.09,21.42l-.39-.08v-.37l.39.1v.35ZM10.68,21.34l-.22-.04v-.44l.22.05v.43ZM11.54,20.49c-.11-.12-.32-.12-.44,0v-.04h-.15l.37-.26.37.26h-.15v.04ZM13.27,20.49c-.11-.12-.33-.12-.44,0v-.04h-.15l.37-.26.37.26h-.15v.04ZM13.96,24.65v-2.62s0-.06,0-.06l-.26-.05v-.29l-.27-.07v-1h-.03v.13h-.04c0-.08-.03-.15-.08-.2h.33l-.57-.4-.56.4h.33c-.05.05-.08.12-.08.2h-.06v.05h.1c-.02-.39.54-.42.55-.02v.02h.08v.81s-.1-.03-.13-.03v-.1h-.21v.05h-.04v-.05h-.15l-1.16-.29v-.56h-.03v.13h-.04c0-.08-.03-.15-.08-.2h.33l-.56-.4-.56.4h.33c-.05.05-.08.12-.08.2h-.06v.05h.1c-.01-.17.11-.31.27-.31.16,0,.28.15.27.31h.08v.38l-.13-.03v-.27h-.21v.22h-.04v-.22h-.21v.15s-.63-.16-.63-.16l-.53-.13v.03l.45.11v.04l-.46-.11h0s.46.13.46.13v.39l-.46-.09v.06l4.02.78s-.02,2.65.02,2.62M29.48,19.97v.02s.08-.04.08-.04h.12v-.02h-.12l-.08.04ZM29.57,21.01h.12v-.02h-.12l-.08.03v.02s.08-.03.08-.03ZM29.57,20.85h.12v-.02h-.12l-.08.04v.02s.08-.03.08-.03ZM29.48,21.17v.02s.08-.03.08-.03h.12v-.02h-.12l-.08.03ZM29.57,21.31h.12v-.02h-.12l-.08.03v.02s.08-.03.08-.03ZM29.57,20.7h.12v-.02h-.12l-.08.04v.02s.08-.04.08-.04ZM29.49,20.14l.08-.04h.12v-.02h-.12l-.08.04h0ZM16.56,21.24l-.07.06h.06s.03.06.03.06l.04.02-.06-.14ZM29.57,20.25h.12v-.02h-.12l-.08.04v.02s.08-.04.08-.04ZM29.69,20.38h-.12l-.08.04v.02s.08-.04.08-.04h.12v-.02ZM29.48,20.57v.02s.08-.04.08-.04h.12v-.02h-.12l-.08.04ZM12.42,24.82c0-.09,0-.24.02-.32v-1.49c0-.87-.56-1.02-.58-.04,0,.04,0,1.73.01,1.71v.2c.22-.03.33-.04.55-.06M29.56,22.52h.12v-.02s-.15,0-.2.01v.02s.08-.01.08-.01ZM16.4,22.34s.04.03.05.08c.01.12.09.17.12.03,0-.04.02-.06.05-.05v-.02c-.09-.02-.13-.03-.21-.06v.03ZM15.42,20.91l-.24-.1v1.09l.24.06v-1.05ZM29.69,23.57h-.2v.02h.2v-.02ZM14.42,21.83s.05.04.06.1c.02.16.12.22.15.03.01-.06.03-.08.06-.07v-.03l-.27-.07v.04ZM29.56,22.83h.12v-.02h-.2s0,.03,0,.03h.08ZM29.56,22.68h.12v-.02h-.2s0,.03,0,.03h.08ZM15.88,20.77h-.1l-.12.15h.1l.11-.1.14.27-.12-.31ZM15.31,22.68h.08s.04.08.04.08l.06.03-.08-.18-.09.07ZM15.77,20.95h.07s.03.07.03.07l.05.03-.07-.17-.08.07ZM15.39,20.56h-.1l-.11.14h.09l.1-.1.12.25-.11-.29ZM15.36,20.67l-.08.06h.07s.03.07.03.07l.05.02-.07-.15ZM15.18,22.03s.04.03.05.09c.02.14.1.2.13.03,0-.05.03-.07.05-.06v-.03c-.09-.02-.14-.04-.24-.06v.03ZM15.29,22.64l.12-.11.15.29-.13-.34h-.11l-.13.16h.11ZM14.1,23.59h.2v-.02h-.2v.02ZM14.82,21.93s.04.03.05.1c.02.15.1.21.13.03.01-.06.03-.08.05-.07v-.03c-.09-.03-.14-.04-.24-.06v.03ZM15.06,20.75l-.24-.1v1.15l.24.06v-1.11ZM14.1,23.74h.2v-.02h-.2v.02ZM15.65,22.03l.27.07v-.97l-.27-.12v1.01ZM14.23,23.89h.08s0-.02,0-.02c-.05,0-.16,0-.2,0v.02h.13ZM14.68,20.48l-.09-.21-.1.08h.09s.04.09.04.09l.06.03ZM15,20.5l-.09.07h.07s.03.08.03.08l.05.03-.08-.17ZM14.49,22.55h.09s.04.09.04.09l.06.03-.09-.21-.1.08ZM14.42,21.69l.27.07v-1.17l-.27-.12v1.21ZM14.63,22.33h-.13l-.15.18h.13l.13-.13.17.33-.15-.39ZM14.88,22.56l.12-.11.15.29-.13-.34h-.11l-.13.16h.11ZM29.48,23.74h.2v-.02h-.2v.02ZM15.02,20.38h-.11l-.12.15h.1l.11-.1.14.27-.12-.32ZM14.9,22.6h.08s.04.08.04.08l.06.03-.08-.18-.09.07ZM14.49,20.13l-.15.18h.13l.13-.13.17.33-.15-.39h-.13ZM29.48,22.07v.02s.08-.02.08-.02h.12v-.02c-.07,0-.13,0-.2.02M15.65,22.15s.05.03.06.09c.02.13.12.19.15.04.01-.05.03-.07.06-.06v-.03c-.11-.03-.16-.04-.27-.07v.03ZM29.56,22.37h.12v-.02h-.12s-.08.02-.08.02v.02s.08-.02.08-.02ZM29.56,22.22h.12v-.02h-.12l-.08.02v.02s.08-.02.08-.02ZM16.24,20.97h-.09l-.1.13h.09l.09-.09.12.23-.1-.27ZM16.61,21.43l-.21-.09v.89l.21.06v-.86ZM16.13,22.81h.07s.03.07.03.07l.05.02-.07-.15-.08.06ZM16.12,22.78l.1-.09.12.24-.11-.28h-.1l-.11.13h.09ZM29.57,21.92h.12v-.02h-.12l-.08.03v.02s.08-.02.08-.02ZM16.22,21.07l-.07.06h.06s.03.07.03.07l.04.02-.06-.14ZM16.27,21.28l-.21-.09v.95l.21.06v-.91ZM16.05,22.25s.04.03.05.08c.01.13.09.17.12.03,0-.05.02-.06.05-.05v-.03c-.08-.02-.13-.03-.21-.06v.03ZM15.76,22.75h.07s.03.07.03.07l.05.02-.07-.16-.08.06ZM15.75,22.72l.1-.1.13.26-.12-.3h-.1l-.11.14h.1Z"/>
  <polygon class="cls-1" points="19.29 27.64 18.8 27.9 18.8 28.23 19.26 28 19.26 29.58 19.59 29.58 19.59 27.64 19.29 27.64"/>
  <path class="cls-1" d="M20.46,28.14c0,.11.09.2.21.25l.19.07c.14-.07.24-.18.24-.31,0-.15-.11-.28-.32-.28s-.31.12-.31.26M21.14,29.06c0-.11-.06-.2-.25-.28l-.21-.09c-.16.06-.26.17-.26.33,0,.2.14.31.37.31s.35-.13.35-.27M21.48,29.07c0,.31-.26.56-.69.56-.45,0-.7-.24-.7-.59,0-.21.12-.38.3-.48-.14-.09-.24-.21-.24-.42,0-.31.24-.53.62-.53s.63.23.63.55c0,.19-.12.34-.27.44.22.11.34.27.34.48"/>
  <path class="cls-1" d="M23.19,28.99c0,.34-.27.64-.7.64-.26,0-.44-.08-.59-.14v-.34c.17.1.37.17.58.17s.36-.13.36-.33-.15-.33-.38-.33c-.13,0-.23.04-.3.09l-.24-.18.04-.93h1.14v.31h-.84l-.03.47c.07-.04.17-.07.32-.07.34,0,.63.25.63.63"/>
  <path class="cls-1" d="M24.56,28.42c0-.34-.12-.52-.37-.52-.2,0-.34.14-.34.34s.14.35.34.35c.16,0,.29-.08.37-.17M23.62,29.52v-.33c.13.07.32.12.47.12.32,0,.47-.18.47-.59-.08.08-.23.16-.45.16-.36,0-.61-.25-.61-.64s.31-.64.68-.64c.46,0,.72.35.72.94,0,.81-.3,1.08-.81,1.08-.17,0-.38-.05-.47-.1"/>
  <polygon class="cls-1" points="50.77 14.29 49.85 14.64 49.85 19.07 50.77 19.07 50.77 14.29 50.77 14.29"/>
  <path class="cls-1" d="M51.97,15.2c.31,0,.57-.25.57-.57s-.25-.57-.57-.57-.57.25-.57.57.25.57.57.57M51.51,19.07h.92v-3.22h-.92v3.22Z"/>
  <path class="cls-1" d="M66.66,15.2c.31,0,.57-.25.57-.57s-.25-.57-.57-.57-.57.25-.57.57.25.57.57.57M66.2,19.07h.92v-3.22h-.92v3.22Z"/>
  <path class="cls-1" d="M46.36,21.24c.31,0,.57-.25.57-.57s-.25-.57-.57-.57-.57.25-.57.57.25.57.57.57M45.9,25.1h.92v-3.22h-.92v3.22Z"/>
  <path class="cls-1" d="M59.58,21.24c.31,0,.57-.25.57-.57s-.25-.57-.57-.57-.57.25-.57.57.25.57.57.57M59.12,25.1h.92v-3.22h-.92v3.22Z"/>
  <path class="cls-1" d="M43.49,24.28c-.41,0-.75-.32-.75-.85s.33-.84.75-.84.72.3.75.79v.11c-.02.5-.35.79-.75.79M45.16,20.28l-.92.35v1.45c-.25-.23-.58-.36-.96-.36-.89,0-1.51.74-1.51,1.71s.61,1.72,1.51,1.72c.38,0,.7-.13.96-.36v.28h.92v-4.78h0Z"/>
  <rect class="cls-1" x="78.88" y="4.86" width=".13" height="30.19"/>
  <path class="cls-1" d="M121.47,10.83c-.2.37-.48.66-.84.87s-.79.31-1.28.31h-1.19v-4.99h1.19c.49,0,.92.1,1.28.31.36.21.64.49.85.86.2.37.3.81.3,1.32s-.1.95-.3,1.32M122.44,7.69c-.29-.52-.71-.93-1.24-1.22s-1.16-.43-1.88-.43h-2.28v6.95h2.28c.72,0,1.35-.15,1.88-.44.53-.29.94-.7,1.24-1.23.29-.53.44-1.13.44-1.82s-.15-1.3-.44-1.82"/>
  <path class="cls-1" d="M124.91,10.45l1.1-3.19,1.08,3.19h-2.18ZM125.32,6.04l-2.45,6.95h1.18l.54-1.56h2.83l.53,1.56h1.18l-2.44-6.95h-1.36Z"/>
  <path class="cls-1" d="M134.19,10.83c-.2.37-.48.66-.84.87s-.79.31-1.28.31h-1.19v-4.99h1.19c.49,0,.92.1,1.28.31.36.21.64.49.85.86.2.37.3.81.3,1.32s-.1.95-.3,1.32M135.16,7.69c-.29-.52-.71-.93-1.24-1.22s-1.16-.43-1.88-.43h-2.28v6.95h2.28c.72,0,1.35-.15,1.88-.44.53-.29.94-.7,1.24-1.23s.44-1.13.44-1.82-.15-1.3-.44-1.82"/>
  <rect class="cls-1" x="105.92" y="22.73" width="5.57" height="11.13"/>
  <polygon class="cls-1" points="105.92 6.04 105.92 22.73 100.35 22.73 100.35 33.87 83.65 33.87 83.65 6.04 105.92 6.04"/>
  <path class="cls-1" d="M119.81,20.17c-.12.23-.3.41-.53.54-.23.13-.49.19-.8.19h-.75v-3.12h.75c.31,0,.57.06.8.19.23.13.4.31.53.54.13.23.19.51.19.83s-.06.6-.19.83M119.65,17.44c-.33-.18-.73-.27-1.18-.27h-1.43v4.35h1.43c.45,0,.84-.09,1.18-.28s.59-.44.77-.77c.18-.33.27-.71.27-1.14s-.09-.81-.27-1.14c-.18-.33-.44-.58-.77-.76"/>
  <rect class="cls-1" x="121.13" y="17.17" width=".66" height=".76"/>
  <rect class="cls-1" x="121.13" y="18.36" width=".66" height="3.16"/>
  <path class="cls-1" d="M123.17,19.4c.08-.16.2-.28.34-.37.15-.09.31-.14.49-.14s.35.04.5.14c.15.09.26.21.34.37.08.16.13.33.13.53s-.04.38-.13.53-.2.28-.34.37c-.14.09-.31.13-.5.13s-.35-.04-.49-.13c-.15-.09-.26-.21-.34-.37-.08-.16-.13-.34-.13-.53s.04-.38.13-.53M123.05,21.15c.1.12.22.21.36.29.2.1.42.15.67.15.3,0,.58-.07.81-.22.24-.15.43-.34.56-.59.14-.25.21-.53.21-.84s-.07-.59-.21-.84c-.14-.25-.33-.44-.57-.59-.24-.14-.51-.22-.81-.22-.25,0-.47.05-.66.15-.16.08-.29.19-.39.32v-.4h-.63v4.33h.66v-1.54Z"/>
  <path class="cls-1" d="M126.81,20.35c.08-.08.21-.13.39-.17l.88-.15v.17c0,.16-.04.31-.11.43-.07.13-.18.24-.31.31-.13.08-.29.12-.47.12-.14,0-.26-.04-.35-.11-.09-.08-.14-.17-.14-.29s.04-.23.12-.31M126.51,21.47c.16.08.35.11.56.11.18,0,.34-.03.49-.08.15-.05.28-.12.39-.22.05-.04.1-.09.15-.14v.37h.63v-2.12c0-.22-.05-.41-.16-.57-.11-.17-.26-.29-.45-.39-.19-.09-.41-.14-.66-.14-.2,0-.39.03-.56.1s-.33.16-.46.28c-.13.12-.23.26-.29.41l.55.27c.06-.14.16-.26.29-.35.13-.09.28-.14.46-.14.19,0,.34.05.46.15.11.1.17.23.17.38v.12l-1,.17c-.24.04-.44.1-.6.2-.16.09-.28.21-.35.35s-.11.29-.11.46c0,.18.04.34.13.48.09.13.22.24.38.32"/>
  <path class="cls-1" d="M129.98,19.7c0-.25.07-.44.2-.57.13-.13.31-.2.53-.2h.27v-.6h-.19c-.22,0-.4.05-.56.14-.12.07-.21.17-.28.31v-.4h-.63v3.16h.66v-1.82Z"/>
  <path class="cls-1" d="M131.8,20.48c0,.34.09.6.27.79.18.19.44.28.77.28.05,0,.11,0,.18-.01.07,0,.13-.02.18-.02v-.57s-.07,0-.11.01c-.04,0-.07,0-.1,0-.12,0-.23-.02-.3-.06-.08-.04-.13-.1-.17-.17-.04-.08-.05-.17-.05-.28v-1.5h.72v-.6h-.72v-.72h-.66v.24c0,.15-.04.27-.12.35-.08.08-.2.13-.34.13h-.09v.6h.55v1.53Z"/>
  <rect class="cls-1" x="133.67" y="17.17" width=".66" height=".76"/>
  <rect class="cls-1" x="133.67" y="18.36" width=".66" height="3.16"/>
  <path class="cls-1" d="M135.58,19.66c0-.16.03-.29.09-.4.06-.11.13-.2.24-.26.1-.06.22-.09.35-.09s.25.03.35.09c.1.06.18.15.23.26s.09.25.09.41v1.86h.65v-1.86c0-.16.03-.29.09-.4.06-.11.14-.2.24-.26.1-.06.22-.09.35-.09s.25.03.35.09c.1.06.18.15.23.26.06.11.08.25.08.41v1.86h.66v-2.04c0-.23-.05-.43-.16-.61-.11-.18-.25-.32-.42-.42-.18-.1-.38-.15-.59-.15-.25,0-.47.06-.66.19-.13.09-.24.2-.33.35-.07-.13-.18-.24-.31-.33-.2-.13-.42-.2-.67-.2-.23,0-.43.06-.6.16-.12.07-.21.17-.28.3v-.39h-.63v3.16h.66v-1.86Z"/>
  <path class="cls-1" d="M140.76,19.35c.07-.16.18-.29.32-.37.14-.09.29-.13.47-.13s.33.04.46.13c.13.09.23.21.29.36.04.08.05.18.06.27h-1.67c.01-.09.04-.18.07-.25M142.65,21.21c.13-.12.23-.25.29-.4l-.54-.26c-.08.14-.18.25-.32.33-.13.09-.3.13-.49.13s-.35-.05-.5-.14c-.15-.09-.26-.21-.34-.37-.05-.11-.08-.23-.09-.37h2.35s.02-.1.02-.15c0-.05,0-.11,0-.16,0-.21-.03-.4-.1-.58-.07-.18-.17-.35-.3-.49-.13-.14-.29-.25-.47-.33-.19-.08-.4-.12-.64-.12-.3,0-.56.07-.79.21-.23.14-.42.34-.56.58-.14.25-.21.53-.21.85s.07.59.21.84c.14.25.33.45.57.6.24.15.52.22.84.22.21,0,.41-.03.59-.1s.34-.16.47-.28"/>
  <path class="cls-1" d="M145.66,18.44c-.18-.1-.38-.15-.62-.15s-.42.05-.6.15c-.12.08-.22.18-.3.3v-.39h-.63v3.16h.66v-1.86c0-.15.03-.29.09-.4.06-.11.14-.2.25-.26.11-.06.23-.09.37-.09s.26.03.36.09c.11.06.19.15.25.26.06.11.09.25.09.41v1.86h.65v-2.04c0-.23-.05-.44-.15-.62s-.24-.32-.42-.42"/>
  <path class="cls-1" d="M147.08,20.48c0,.34.09.6.27.79.18.19.44.28.77.28.05,0,.11,0,.18-.01.07,0,.13-.02.18-.02v-.57s-.07,0-.11.01c-.04,0-.07,0-.1,0-.12,0-.23-.02-.3-.06-.08-.04-.13-.1-.17-.17-.04-.08-.05-.17-.05-.28v-1.5h.72v-.6h-.72v-.72h-.66v.24c0,.15-.04.27-.12.35-.08.08-.2.13-.34.13h-.09v.6h.55v1.53Z"/>
  <path class="cls-1" d="M149.58,20.47c-.08-.16-.12-.34-.12-.53s.04-.38.12-.53c.08-.16.2-.28.35-.37.15-.09.31-.13.49-.13s.35.04.5.13c.14.09.26.21.34.37.08.15.12.33.12.53s-.04.38-.12.53c-.08.16-.2.28-.34.37-.14.09-.31.13-.5.13s-.35-.04-.49-.13c-.15-.09-.26-.21-.35-.37M151.24,21.37c.25-.14.45-.34.6-.59.15-.25.22-.53.22-.85s-.07-.6-.22-.85c-.15-.25-.34-.44-.59-.58-.25-.14-.53-.21-.84-.21s-.59.07-.84.21c-.25.14-.45.34-.6.58-.15.25-.22.53-.22.85s.07.6.22.85c.15.25.35.45.6.59.25.14.53.22.83.22s.58-.07.83-.21"/>
  <path class="cls-1" d="M119.35,26.81c-.08.16-.2.28-.35.37-.15.09-.31.13-.49.13s-.35-.04-.5-.13c-.15-.09-.26-.21-.34-.37-.08-.16-.12-.33-.12-.53s.04-.38.12-.53.2-.28.35-.37c.15-.09.31-.13.5-.13s.35.04.49.13c.15.09.26.21.35.37.08.16.12.33.12.53s-.04.38-.12.53M119.47,25.07c-.1-.12-.22-.21-.36-.29-.2-.1-.42-.15-.67-.15-.3,0-.57.07-.81.22s-.43.34-.57.59c-.14.25-.21.53-.21.84s.07.59.21.84c.14.25.33.45.57.59.24.15.51.22.82.22.24,0,.46-.05.66-.15.16-.08.29-.19.39-.32v.41h.62v-4.42h-.65v1.63Z"/>
  <rect class="cls-1" x="120.72" y="24.7" width=".66" height="3.16"/>
  <rect class="cls-1" x="120.72" y="23.51" width=".66" height=".76"/>
  <path class="cls-1" d="M123.77,26.27l.68-1.99.68,1.99h-1.36ZM124.03,23.51l-1.53,4.35h.74l.34-.97h1.77l.33.97h.74l-1.53-4.35h-.85Z"/>
  <path class="cls-1" d="M127.6,24.79c-.12.07-.21.17-.28.31v-.4h-.63v3.16h.66v-1.82c0-.25.07-.44.2-.58.14-.13.31-.2.53-.2h.27v-.6h-.19c-.22,0-.4.05-.56.14"/>
  <path class="cls-1" d="M129.64,25.37c.14-.09.3-.13.48-.13s.35.05.5.15c.15.1.25.23.32.39l.58-.27c-.07-.17-.17-.33-.31-.46-.14-.13-.3-.24-.49-.31-.19-.08-.39-.11-.6-.11-.32,0-.6.07-.84.21-.25.14-.44.34-.58.59-.14.25-.21.53-.21.84s.07.6.21.85c.14.25.34.45.58.59.24.15.52.22.84.22.22,0,.42-.04.61-.12.19-.08.35-.18.49-.32.14-.13.24-.29.3-.45l-.58-.28c-.07.17-.18.3-.32.4s-.31.15-.5.15c-.18,0-.34-.04-.48-.13-.14-.09-.25-.21-.34-.37-.08-.16-.12-.34-.12-.53s.04-.38.12-.53c.08-.16.19-.28.34-.37"/>
  <path class="cls-1" d="M132.99,25.33c.11-.06.23-.09.36-.09s.26.03.36.09c.11.06.19.15.25.26.06.11.09.25.09.41v1.86h.65v-2.04c0-.23-.05-.43-.15-.61-.1-.18-.24-.32-.42-.42-.18-.1-.39-.15-.62-.15s-.42.05-.6.15c-.11.07-.2.15-.27.26v-1.6h-.66v4.42h.66v-1.86c0-.16.03-.29.09-.4.06-.11.14-.2.25-.26"/>
  <rect class="cls-1" x="135.23" y="24.7" width=".66" height="3.16"/>
  <rect class="cls-1" x="135.23" y="23.51" width=".66" height=".76"/>
  <path class="cls-1" d="M136.81,26.82c0,.34.09.6.27.79.18.19.44.28.77.28.05,0,.11,0,.18-.01.07,0,.13-.02.18-.02v-.57s-.07,0-.11.01c-.04,0-.07,0-.1,0-.12,0-.23-.02-.3-.06-.08-.04-.13-.1-.17-.17-.04-.08-.05-.17-.05-.28v-1.5h.72v-.6h-.72v-.72h-.66v.24c0,.15-.04.27-.12.35-.08.08-.2.13-.34.13h-.09v.6h.55v1.53Z"/>
  <path class="cls-1" d="M139.27,25.69c.07-.16.18-.29.32-.37.14-.09.29-.13.47-.13s.33.04.46.13c.13.09.23.21.29.36.04.08.05.17.06.27h-1.67c.01-.09.04-.18.07-.25M141.16,25.09c-.13-.14-.29-.25-.47-.34-.19-.08-.4-.12-.64-.12-.3,0-.56.07-.79.21-.23.14-.42.33-.56.58-.14.25-.21.53-.21.85s.07.59.2.84c.14.25.33.45.57.6.24.15.52.22.84.22.21,0,.41-.03.59-.1s.34-.16.47-.28c.13-.12.23-.25.29-.4l-.54-.26c-.08.14-.18.25-.32.33-.13.08-.3.13-.49.13s-.35-.04-.5-.13c-.15-.09-.26-.21-.34-.37-.05-.11-.08-.23-.09-.37h2.35s.02-.1.02-.15c0-.05,0-.11,0-.16,0-.21-.03-.4-.1-.58-.07-.18-.17-.35-.29-.49"/>
  <path class="cls-1" d="M143.53,27.31c-.12,0-.23-.02-.3-.06-.08-.04-.14-.1-.17-.18-.03-.08-.05-.17-.05-.28v-1.5h.72v-.6h-.72v-.72h-.66v.25c0,.15-.04.26-.12.35-.08.09-.2.13-.34.13h-.09v.6h.56v1.53c0,.34.09.6.27.79.18.19.44.28.77.28.05,0,.11,0,.18-.01.07,0,.13-.01.18-.02v-.57s-.07,0-.11.01c-.04,0-.07,0-.1,0"/>
  <path class="cls-1" d="M145.72,27.31c-.12,0-.23-.02-.3-.06-.08-.04-.13-.1-.17-.18-.03-.08-.05-.17-.05-.28v-1.5h.72v-.6h-.72v-.72h-.66v.25c0,.15-.04.26-.12.35-.08.09-.2.13-.34.13h-.09v.6h.56v1.53c0,.34.09.6.27.79.18.19.44.28.77.28.05,0,.11,0,.18-.01.07,0,.13-.01.18-.02v-.57s-.07,0-.11.01c-.04,0-.07,0-.1,0"/>
  <path class="cls-1" d="M148.4,26.56c0,.15-.03.28-.09.4-.06.11-.14.2-.25.26-.1.06-.23.09-.37.09s-.26-.03-.36-.09c-.11-.06-.19-.15-.25-.25-.06-.11-.09-.24-.09-.38v-1.89h-.66v1.95c0,.25.05.48.15.67.1.19.24.34.42.45.18.11.39.16.62.16s.43-.05.6-.16c.13-.08.22-.18.3-.3v.39h.62v-3.16h-.65v1.86Z"/>
  <path class="cls-1" d="M150.56,24.79c-.12.07-.21.17-.28.31v-.4h-.63v3.16h.66v-1.82c0-.25.07-.44.2-.58.14-.13.31-.2.53-.2h.27v-.6h-.19c-.22,0-.4.05-.56.14"/>
  <path class="cls-1" d="M153.42,26.98c-.07.13-.18.24-.31.31-.14.08-.29.12-.47.12-.14,0-.26-.04-.35-.11-.09-.08-.14-.18-.14-.29s.04-.23.12-.31c.08-.08.21-.14.38-.17l.88-.15v.17c0,.16-.04.31-.11.43M154.03,25.16c-.11-.17-.26-.29-.45-.39-.19-.09-.41-.14-.66-.14-.2,0-.39.03-.56.1-.18.07-.33.16-.46.28-.13.12-.23.26-.29.41l.55.27c.06-.14.16-.26.29-.35s.28-.14.46-.14c.19,0,.34.05.46.15.11.1.17.23.17.38v.12l-1,.17c-.24.04-.44.11-.6.2-.16.09-.28.21-.35.34-.08.14-.11.29-.11.46,0,.18.05.34.14.48.09.13.21.24.38.31.16.08.35.11.56.11.18,0,.34-.03.49-.08.15-.05.28-.12.39-.22.05-.04.1-.09.15-.14v.37h.63v-2.13c0-.22-.05-.41-.16-.57"/>
  <path class="cls-1" d="M117.63,31.69c.07-.16.18-.29.32-.37.14-.09.29-.13.47-.13s.33.04.46.13c.13.09.23.21.29.36.04.08.05.17.06.27h-1.67c.01-.09.04-.18.07-.25M119.52,31.09c-.13-.14-.29-.25-.47-.34-.19-.08-.4-.12-.64-.12-.3,0-.56.07-.79.21-.23.14-.42.33-.56.58-.14.25-.21.53-.21.85s.07.59.2.84c.14.25.33.45.57.59s.52.22.84.22c.21,0,.41-.03.59-.1s.34-.16.47-.28c.13-.12.23-.25.29-.4l-.54-.26c-.08.14-.18.25-.32.33-.13.09-.3.13-.49.13s-.35-.04-.5-.13c-.15-.09-.26-.21-.34-.37-.05-.11-.09-.23-.09-.37h2.35s.02-.1.02-.15c0-.06,0-.11,0-.16,0-.21-.03-.4-.1-.58-.07-.18-.17-.35-.29-.49"/>
  <path class="cls-1" d="M124.06,32.51c-.12.23-.3.42-.53.54-.23.13-.49.19-.8.19h-.75v-3.12h.75c.31,0,.57.06.8.19.23.13.4.31.53.54.13.23.19.51.19.83s-.06.6-.19.83M123.9,29.78c-.33-.18-.73-.27-1.18-.27h-1.43v4.35h1.43c.45,0,.84-.09,1.18-.27.33-.18.59-.44.77-.77.18-.33.28-.71.28-1.14s-.09-.81-.28-1.14-.44-.58-.77-.76"/>
  <path class="cls-1" d="M126.03,31.69c.07-.16.18-.29.32-.37.14-.09.29-.13.47-.13s.33.04.46.13c.13.09.23.21.29.36.04.08.05.17.06.27h-1.67c.01-.09.04-.18.07-.25M127.92,31.09c-.13-.14-.29-.25-.47-.34-.19-.08-.4-.12-.64-.12-.3,0-.56.07-.79.21-.23.14-.42.33-.56.58-.14.25-.21.53-.21.85s.07.59.2.84c.14.25.33.45.57.59.24.15.52.22.84.22.21,0,.41-.03.59-.1s.34-.16.47-.28c.13-.12.23-.25.29-.4l-.54-.26c-.08.14-.18.25-.32.33-.13.09-.3.13-.49.13s-.35-.04-.5-.13c-.15-.09-.26-.21-.34-.37-.05-.11-.08-.23-.09-.37h2.35s.02-.1.02-.15c0-.06,0-.11,0-.16,0-.21-.03-.4-.1-.58-.07-.18-.17-.35-.29-.49"/>
  <path class="cls-1" d="M129.53,31.28c.09-.07.2-.1.34-.1.17,0,.32.05.45.13.13.09.23.21.29.36l.51-.24c-.09-.25-.25-.45-.48-.59-.23-.14-.48-.21-.77-.21-.21,0-.41.04-.58.12-.17.08-.31.19-.4.33-.1.14-.15.31-.15.5,0,.21.07.39.2.55.13.16.34.28.61.35l.5.14c.07.01.13.04.2.07.06.03.12.07.16.12.04.05.07.11.07.19,0,.12-.05.22-.15.29-.1.07-.22.1-.38.1-.18,0-.35-.05-.5-.16-.15-.1-.27-.25-.35-.43l-.51.24c.1.27.27.48.51.64.24.16.53.24.85.24.23,0,.44-.04.61-.12.18-.08.31-.19.41-.33.1-.14.15-.31.15-.49,0-.22-.07-.41-.21-.56-.14-.16-.34-.27-.6-.35l-.51-.15c-.07-.02-.13-.04-.19-.07-.06-.03-.11-.07-.15-.12-.04-.05-.06-.11-.06-.18,0-.11.04-.2.13-.27"/>
  <rect class="cls-1" x="131.6" y="29.51" width=".66" height=".76"/>
  <rect class="cls-1" x="131.6" y="30.7" width=".66" height="3.16"/>
  <path class="cls-1" d="M135.14,32.68c-.08.14-.19.26-.32.34-.14.08-.29.12-.47.12s-.34-.04-.48-.12c-.14-.08-.25-.2-.33-.34-.08-.14-.12-.3-.12-.48s.04-.35.12-.49c.08-.14.19-.25.33-.34.14-.08.3-.12.48-.12s.32.04.46.12c.14.08.25.2.33.34.08.14.12.31.12.48s-.04.34-.12.48M135.28,31.11c-.1-.13-.23-.24-.38-.32-.19-.1-.4-.15-.65-.15-.3,0-.56.07-.79.2-.23.14-.41.32-.55.56-.13.23-.2.5-.2.8s.07.56.2.8c.14.24.32.42.55.56.23.14.5.2.79.2.24,0,.46-.05.65-.16.13-.07.24-.17.34-.29v.4c0,.17-.04.32-.12.44-.08.12-.18.22-.32.28-.13.06-.28.1-.45.1-.21,0-.39-.05-.54-.15-.15-.1-.25-.22-.3-.37l-.61.25c.07.17.18.33.32.46s.31.23.5.31c.19.07.41.11.64.11.3,0,.56-.06.79-.19.23-.12.41-.29.54-.51.13-.22.2-.46.2-.73v-3.01h-.62v.41Z"/>
  <path class="cls-1" d="M138.65,30.78c-.18-.1-.38-.15-.62-.15s-.42.05-.6.15c-.12.08-.22.18-.3.3v-.39h-.63v3.16h.66v-1.86c0-.15.03-.29.09-.4.06-.11.14-.2.25-.26.11-.06.23-.09.37-.09s.26.03.36.09c.11.06.19.15.25.26.06.11.09.25.09.41v1.86h.65v-2.04c0-.23-.05-.44-.15-.62-.1-.18-.24-.32-.42-.42"/>
</svg>